<svg xmlns="http://www.w3.org/2000/svg" xml:space="preserve" width="2048" height="2048" style="shape-rendering:geometricPrecision;text-rendering:geometricPrecision;image-rendering:optimizeQuality;fill-rule:evenodd;clip-rule:evenodd"><defs><clipPath id="id0"><path d="M1024 0c565.539 0 1024 458.461 1024 1024s-458.461 1024-1024 1024S0 1589.539 0 1024 458.461 0 1024 0z"/></clipPath><style>.fil14{fill:#00406b}.fil6{fill:#212121}.fil8{fill:#424242}.fil7{fill:#616161}.fil10{fill:#636363}.fil4{fill:#bdbdbd}.fil19{fill:#bfe3e6}.fil12{fill:#c3e8ea}.fil25{fill:#dcb696}.fil23{fill:#e3bc9b}.fil30{fill:#eac2a0}.fil29{fill:#f2c8a5}.fil24{fill:#f7cca9}.fil26{fill:#f7d5b8}.fil13{fill:#f7f7f7}.fil1{fill:#ffb300}.fil3{fill:#ffd3ae}.fil22{fill:#ffdcbe}.fil9{fill:#fff}</style></defs><g id="Layer_x0020_1"><path d="M1024 0c565.539 0 1024 458.461 1024 1024s-458.461 1024-1024 1024S0 1589.539 0 1024 458.461 0 1024 0z" style="fill:#ffd54f"/><g style="clip-path:url(#id0)"><g id="_478205680"><path id="_3871886801" class="fil1" d="M1300.09 983.305 2435.97 2119.19l.64 2.41.81 2.77.95 3.11 1.09 3.42 1.21 3.7 1.33 3.95 1.43 4.19 1.53 4.38 1.6 4.56 1.67 4.71 1.72 4.83 1.77 4.92 1.8 5 1.82 5.03 1.83 5.04 1.83 5.03 1.81 5 1.79 4.92 1.74 4.83 1.7 4.71 1.63 4.56 1.56 4.39 1.48 4.19 1.37 3.96 1.27 3.7 1.15 3.43 1.01 3.11.87 2.78.71 2.42.55 2.02.36 1.61.18 1.17L1342.3 1107.16l-.18-1.17-.36-1.61-.55-2.03-.71-2.41-.87-2.78-1.01-3.11-1.15-3.43-1.27-3.7-1.38-3.96-1.47-4.19-1.56-4.39-1.63-4.56-1.7-4.71-1.74-4.83-1.79-4.93-1.81-4.99-1.83-5.03-1.83-5.04-1.82-5.04-1.8-4.99-1.77-4.92-1.72-4.83-1.67-4.71-1.61-4.56-1.52-4.38-1.43-4.19-1.33-3.954-1.21-3.7-1.09-3.418-.96-3.109-.8-2.773z"/><path id="_387212464" class="fil1" d="M1265.18 663.631 2401.06 1799.51l-.37 1.24-.42 1.22-.45 1.22-.49 1.2-.51 1.18-.52 1.17-.53 1.14-.53 1.12-.52 1.1-.5 1.07-.47 1.04-.43 1-.39.97-.34.93-.27.89-.21.85L1258.23 680.967l.2-.848.28-.89.34-.932.39-.969.43-1.003.47-1.037.5-1.069.52-1.096.52-1.121.54-1.146.52-1.166.51-1.184.49-1.2.45-1.215.42-1.226z"/><path id="_387185272" class="fil1" d="M1353.94 865.437 2489.82 2001.32l-56.52-16.25L1297.42 849.185z"/><path id="_387190072" class="fil1" d="M1183.69 747.572 2319.57 1883.45l-41.11-12.72L1142.58 734.843z"/><path id="_387197416" class="fil1" d="M1142.58 734.843 2278.46 1870.73l-1.82-1.67-1.76-1.68-1.68-1.7-1.6-1.72L1135.71 728.076l1.61 1.725 1.68 1.698 1.76 1.677z"/><path id="_387202144" class="fil1" d="M1295.73 963.424 2431.61 2099.31l.31 1.15.3 1.19.29 1.21.28 1.24.27 1.26.27 1.27.26 1.28.26 1.29.25 1.29.26 1.29.26 1.28.26 1.26.26 1.26.27 1.23.28 1.2.28 1.18L1300.09 983.305l-.28-1.175-.28-1.206-.27-1.23-.26-1.252-.26-1.267-.26-1.279-.26-1.287-.25-1.29-.26-1.289-.26-1.282-.27-1.272-.27-1.258-.28-1.238-.29-1.215-.3-1.187z"/><path id="_387207208" class="fil1" d="m1278.27 843.61 1135.88 1135.88.32 2.08.38 2.47.43 2.83.49 3.17.54 3.46.58 3.75.62 3.99.65 4.21.68 4.41.7 4.57.73 4.7.74 4.81.75 4.9.75 4.94.76 4.96.75 4.96.74 4.93.73 4.86.71 4.77.69 4.66.66 4.51.62 4.33.59 4.14.55 3.9.5 3.64.45 3.35.4 3.04.33 2.7.27 2.32.19 1.92.12 1.5.04 1.04L1295.73 963.424l-.04-1.039-.12-1.495-.2-1.923-.26-2.323-.34-2.695-.39-3.038-.45-3.356-.5-3.641-.55-3.901-.59-4.132-.62-4.334-.66-4.51-.69-4.654-.71-4.774-.73-4.864-.74-4.927-.75-4.958-.76-4.965-.75-4.942-.75-4.891-.74-4.812-.73-4.704-.7-4.569-.68-4.405-.65-4.213-.62-3.992-.58-3.745-.54-3.468-.49-3.164-.43-2.83-.38-2.47z"/><path id="_387183976" class="fil1" d="m1365.02 1033.49 1135.89 1135.89-1.05-.47-.7-.42-.48-.4-.37-.35-.37-.33-.51-.29-.76-.26-1.12-.22-1135.88-1135.89 1.12.23.76.26.5.29.38.32.37.36.48.4.7.42z"/><path id="_387199960" class="fil1" d="m1359.67 1030.75 1135.88 1135.89-1.22-.05-1.25.15-1.31.21-1.37.14-1.45-.06-1.55-.4-1.67-.88-1.79-1.47-1135.89-1135.89 1.8 1.48 1.67.88 1.55.4 1.45.06 1.37-.14 1.31-.21 1.25-.15z"/><path id="_387208864" class="fil1" d="m1348.05 1028.39 1135.89 1135.89-1.46-1.41-1.1-1.02-.79-.69-.54-.41-.36-.19-.24-.02-.17.09-.16.14-.21.13-.33.08-.5-.04-.73-.22-1.02-.44-1.38-.73-1.79-1.07-2.26-1.46-1135.88-1135.89 2.26 1.47 1.79 1.07 1.37.73 1.03.44.73.21.5.04.33-.07.21-.14.16-.13.17-.09.23.02.36.19.55.41.79.68 1.09 1.02z"/><path id="_387214672" class="fil1" d="M1297.42 849.185 2433.3 1985.07l-.98-.29-.58-.14-.31-.05-.13-.02-.08-.03-.14-.11-.32-.23-.6-.42L1294.28 847.895l.6.418.32.235.14.108.08.033.13.015.3.051.59.142z"/><path id="_387196936" class="fil1" d="M1294.28 847.895 2430.16 1983.78l-1.07-.03-1.08-.08-1.1-.13-1.09-.17-1.09-.21-1.09-.24-1.07-.28-1.06-.3-1.04-.32-1.02-.34-.98-.36-.95-.36-.91-.37-.87-.37-.82-.37-.77-.36L1278.27 843.61l.77.359.82.367.86.37.92.37.95.365.98.354 1.02.341 1.04.324 1.06.301 1.07.275 1.09.245 1.09.209 1.09.17 1.09.128 1.09.079z"/><path id="_387215824" class="fil1" d="M1398.62 961.071 2534.5 2096.95l-.33 2.09-.26 1.94-.18 1.8-.13 1.68-.06 1.56-.01 1.45.04 1.36.07 1.27.11 1.19.14 1.13.16 1.08.17 1.03.18 1 .18.97.18.96.17.96.16.96.13.98.1 1.01.06 1.04.03 1.09-.02 1.15-.08 1.22-.13 1.3-.21 1.39-.27 1.49-.35 1.59-.44 1.72-.53 1.84-.63 1.99-.73 2.14-.84 2.3L1395.3 1005.74l.84-2.29.73-2.14.63-1.989.53-1.846.43-1.716.36-1.596.27-1.487.2-1.387.14-1.298.08-1.22.02-1.15-.03-1.093-.06-1.045-.11-1.006-.13-.981-.15-.962-.17-.956-.18-.959-.18-.973-.18-.997-.17-1.031-.16-1.076-.14-1.13-.11-1.196-.07-1.272-.04-1.355.01-1.454.06-1.559.13-1.676.18-1.803.26-1.939z"/><path id="_387193696" class="fil1" d="m1395.3 1005.74 1135.88 1135.89-.87 2.44-.77 2.42-.69 2.38-.63 2.32-.59 2.24-.56 2.15-.56 2.05-.57 1.92-.6 1.78-.65 1.62-.73 1.45-.81 1.26-.92 1.05-1.04.83-1.19.59-1.36.34-1135.88-1135.88 1.35-.34 1.2-.59 1.04-.83.92-1.06.81-1.26.73-1.44.65-1.63.6-1.77.57-1.92.56-2.05.56-2.15.59-2.24.63-2.32.69-2.38.77-2.42z"/><path id="_390592368" class="fil1" d="m1374.31 1028.41 1135.88 1135.88-9.28 5.09-1135.89-1135.89z"/><path id="_390595512" class="fil1" d="m1484.38 1189.93 1135.89 1135.88-1.4.11-1.4.17-1.4.2-1.4.25-1.41.28-1.4.31-1.4.35-1.4.38-1.41.4-1.4.42-1.41.44-1.4.46-1.4.47-1.4.48-1.4.49-1.41.49-1.4.49-1.39.5-1.4.48-1.4.48-1.39.47-1.39.45-1.39.44-1.39.41-1.39.39-1.38.37-1.38.34-1.38.3-1.37.27-1.37.24-1.37.19-1.37.15-1135.88-1135.89 1.36-.14 1.37-.19 1.38-.24 1.37-.27 1.38-.3 1.38-.34 1.38-.37 1.39-.39 1.39-.42 1.39-.43 1.39-.46 1.39-.46 1.4-.48 1.4-.49 1.39-.49 1.4-.49 1.4-.49 1.41-.49 1.4-.48 1.4-.47 1.4-.46 1.41-.44 1.4-.43 1.4-.4 1.41-.37 1.4-.35 1.4-.32 1.41-.28 1.4-.24 1.4-.21 1.4-.16z"/><path id="_390582888" class="fil1" d="m1342.3 1107.16 1135.88 1135.88.66 1.17.64 1.18.64 1.19.63 1.19.62 1.21.61 1.2.6 1.22.6 1.22.59 1.22.58 1.23.58 1.24.58 1.23.57 1.24.57 1.24.56 1.25.57 1.24.56 1.25.56 1.24.57 1.25.56 1.24.57 1.25.56 1.24.57 1.24.58 1.23.57 1.23.59 1.23.59 1.22.59 1.22.6 1.21.61 1.21.61 1.2.62 1.19-1135.88-1135.89-.62-1.19-.62-1.2-.6-1.2-.6-1.21-.6-1.22-.58-1.22-.59-1.23-.57-1.23-.58-1.24-.57-1.24-.56-1.24-.57-1.24-.56-1.24-.57-1.25-.56-1.24-.56-1.25-.57-1.24-.56-1.25-.57-1.24-.57-1.24-.58-1.24-.58-1.23-.58-1.23-.59-1.22-.6-1.22-.6-1.22-.61-1.21-.62-1.2-.63-1.19-.64-1.19-.65-1.18z"/><path id="_390601560" class="fil1" d="M1257.9 705.438 2393.78 1841.32l.02 1.99.04 1.92.08 1.85.09 1.79.11 1.76.12 1.73.13 1.71.14 1.72.13 1.74.14 1.76.12 1.81.11 1.86.09 1.93.07 2.01.05 2.11.02 2.23L1259.35 735.354l-.01-2.222-.05-2.112-.07-2.014-.09-1.931-.11-1.861-.13-1.806-.13-1.762-.13-1.735-.14-1.719-.13-1.717-.12-1.73-.11-1.755-.1-1.796-.07-1.847-.04-1.915z"/><path id="_390588264" class="fil1" d="M1259.35 735.354 2395.24 1871.24l.46.75.45.93.43 1.11.41 1.25.38 1.38.36 1.47.33 1.56.31 1.61.27 1.65.25 1.66.21 1.66.18 1.62.14 1.57.1 1.5.06 1.4.02 1.28L1263.72 757.758l-.02-1.283-.06-1.4-.11-1.497-.14-1.572-.17-1.623-.21-1.653-.25-1.663-.27-1.649-.31-1.612-.33-1.556-.36-1.476-.38-1.375-.41-1.251-.43-1.106-.45-.938z"/><path id="_390595824" class="fil1" d="m1546.35 1131.37 1135.88 1135.88.2 1.95.3 1.92.39 1.88.47 1.86.56 1.84.64 1.82.72 1.82.78 1.81.85 1.82.91 1.82.96 1.84 1.02 1.86 1.06 1.89 1.11 1.92 1.14 1.96 1.18 2.01 1.2 2.05 1.23 2.11 1.25 2.17 1.26 2.24 1.28 2.32 1.27 2.39 1.28 2.48 1.28 2.57 1.27 2.67 1.25 2.78 1.24 2.88 1.21 2.99 1.19 3.12 1.16 3.24 1.12 3.38 1.08 3.51-1135.88-1135.88-1.08-3.51-1.12-3.38-1.16-3.24-1.19-3.12-1.21-3-1.24-2.88-1.25-2.77-1.27-2.67-1.28-2.57-1.28-2.48-1.28-2.39-1.27-2.32-1.26-2.24-1.25-2.17-1.23-2.11-1.2-2.06-1.18-2-1.14-1.96-1.11-1.92-1.06-1.89-1.02-1.86-.96-1.84-.91-1.83-.85-1.81-.79-1.82-.71-1.81-.64-1.82-.56-1.84-.48-1.86-.38-1.88-.3-1.92z"/><path id="_390606696" class="fil1" d="m1382.76 1032.59 1135.88 1135.88-1.66.11-1.4-.16-1.18-.38-1-.55-.87-.7-.8-.8-1135.88-1135.88.8.79.87.7 1 .56 1.18.38 1.39.16z"/><path id="_390585384" class="fil1" d="m1578.94 1249.1 1135.88 1135.89-.78.89-.52.6-.35.35-.26.17-.27.04-.34-.04-.52-.05-.78-.02-1135.89-1135.88.79.01.52.06.34.03.26-.03.27-.17.35-.36.52-.59z"/><path id="_390606048" class="fil1" d="m1484.98 1191.35 1135.88 1135.88-.11-.12-.09-.08-.08-.06-.05-.04-1135.89-1135.88.06.03.08.07.09.08z"/><path id="_390605064" class="fil1" d="m1484.59 1191.17 1135.88 1135.88-.02-.04-.02-.05v-.04l.03-.01.07.02-1135.89-1135.88-.06-.03-.03.02v.04l.02.05z"/><path id="_390578616" class="fil1" d="m1486.73 1192.98 1135.88 1135.88-.22-.17-.09-.01-.06.04-.09-.01-.2-.19-1135.88-1135.88.2.18.09.02.05-.05.1.01z"/><path id="_390577056" class="fil1" d="m1500.9 1198.66 1135.88 1135.88-10.18 1.45-1135.88-1135.88z"/><path id="_390596544" class="fil1" d="m1509.91 1202.34 1135.88 1135.89-.68-.46-.71.23-.99.67-1.49.87-2.23.82-1135.88-1135.88 2.23-.82 1.49-.87.99-.67.71-.23z"/><path id="_390603120" class="fil1" d="m1520.86 1209.76 1135.88 1135.89-.42-.35-.4-.02-.62.18-1.06.28-1.73.28-2.63.16L1514 1210.3l2.63-.16 1.73-.28 1.06-.28.62-.18.4.02z"/><path id="_390582264" class="fil1" d="M1575.11 1251.05 2711 2386.93l-.29.59-.32.72-.48.82-.77.85-1.18.83-1.72.78-2.39.66-3.19.49-1135.88-1135.88 3.19-.5 2.39-.66 1.72-.77 1.18-.84.77-.85.48-.81.32-.72z"/><path id="_390576192" class="fil1" d="m1564.78 1256.79 1135.88 1135.88-2.11.18-1.99.08-1.88-.03-1.78-.12-1.68-.23-1.58-.32-1.49-.42-1.41-.51-1.33-.6-1.25-.68-1.19-.78-1.13-.85-1.07-.94-1.02-1.02-1135.88-1135.88 1.02 1.01 1.07.94 1.12.86 1.19.77 1.26.69 1.33.6 1.41.51 1.49.42 1.58.32 1.68.22 1.78.13 1.88.03 1.99-.08z"/><path id="_390581040" class="fil1" d="M993.66 803.383 2129.54 1939.27l.38.43.48.54L994.515 804.362l-.481-.548z"/><path id="_390580656" class="fil1" d="M1058.61 958.566 2194.49 2094.45l-.13 2.31-.4 1.98-.64 1.69-.87 1.42-1.08 1.16-1.29.94-1.46.73-1.64.56-1.79.4-1.93.26-2.04.17-2.16.07-2.24.02-2.32-.02-2.38-.03-2.43-.02L1033.81 970.207l2.43.02 2.38.032 2.32.019 2.24-.018 2.15-.077 2.05-.161 1.93-.268 1.79-.399 1.64-.555 1.46-.735 1.29-.936 1.08-1.164.87-1.415.64-1.689.4-1.986z"/><path id="_390574512" class="fil1" d="M927.589 932.371 2063.47 2068.25v14.55L927.589 946.922z"/><path id="_390589680" class="fil1" d="M1033.81 970.207 2169.69 2106.09h-106.22L927.589 970.204z"/><path id="_390594792" class="fil1" d="M1014.85 884.397 2150.73 2020.28l-3.3-.39-3.1-.47-2.9-.55-2.71-.61-2.55-.69-2.38-.75-2.23-.81-2.1-.86-1.97-.93-1.86-.97-1.75-1.02-1.67-1.07-1.58-1.11-1.52-1.15-1.47-1.18-1.42-1.22-1.4-1.25-1.37-1.27-1.36-1.29-1.37-1.31-1.39-1.33-1.41-1.34-1.45-1.35-1.51-1.36-1.57-1.36-1.64-1.36-1.73-1.35-1.83-1.35-1.93-1.34-2.06-1.33-2.2-1.31-2.34-1.29L953.781 849.431l2.34 1.289 2.194 1.31 2.06 1.325 1.938 1.34 1.829 1.35 1.729 1.356 1.643 1.359 1.567 1.36 1.504 1.357 1.454 1.35 1.412 1.34 1.386 1.329 1.37 1.312 1.364 1.293 1.372 1.271 1.393 1.245 1.423 1.217 1.466 1.183 1.52 1.149 1.587 1.109 1.666 1.069 1.755 1.023 1.858.975 1.97.922 2.096.868 2.234.809 2.379.749 2.55.684 2.71.615 2.9.545 3.1.47z"/><path id="_390605664" class="fil1" d="M927.589 970.204 2063.47 2106.09v13.09L927.589 983.3z"/><path id="_390587520" class="fil1" d="m1169.26 1162.28 1135.88 1135.88-1.22.51-1.43.92-1.62 1.29-1.77 1.6-1.9 1.87-2 2.06-2.05 2.23-2.09 2.32-2.08 2.37-2.06 2.38-1.99 2.31-1.89 2.21-1.77 2.04-1.62 1.83-1.42 1.57-1.21 1.24-1135.88-1135.88 1.21-1.25 1.42-1.56 1.62-1.83 1.77-2.05 1.89-2.2 1.99-2.32 2.06-2.37 2.08-2.37 2.09-2.33 2.05-2.22 2-2.07 1.9-1.86 1.77-1.6 1.62-1.29 1.43-.92z"/><path id="_390596616" class="fil1" d="M927.589 983.3 2063.47 2119.18l-2.17.01h-2.36l-2.53.02-2.68.02-2.83.02-2.97.02-3.08.03-3.19.03-3.29.04-3.37.03-3.43.03-3.49.04-3.54.03-3.57.03-3.58.03-3.59.03-3.59.02-3.56.02-3.53.01-3.49.02h-6.78l-3.28-.01-3.17-.01-3.07-.02-2.95-.04-2.81-.04-2.67-.05-2.5-.05-2.33-.08-2.15-.08-1.95-.09L830.089 983.307l1.949.094 2.147.081 2.333.071 2.505.059 2.665.05 2.813.04 2.945.031 3.069.022 3.177.015 3.273.008 3.358.001 3.427-.006 3.486-.011 3.531-.015 3.564-.02 3.583-.024 3.592-.027 3.584-.03 3.569-.03 3.536-.033 3.492-.033 3.436-.033 3.367-.034 3.286-.031 3.192-.031 3.083-.029 2.964-.025 2.831-.023 2.686-.018 2.527-.014 2.357-.008z"/><path id="_390580344" class="fil1" d="m1132.76 1200.11 1135.88 1135.88 17.25 42.41-1135.88-1135.88z"/><path id="_390584256" class="fil1" d="M1150.01 1242.52 2285.89 2378.4l.51 1.38.49 1.38.48 1.38.47 1.39.46 1.39.44 1.4.44 1.4.43 1.4.42 1.4.42 1.4.41 1.41.41 1.41.41 1.41.4 1.41.41 1.42.4 1.41.41 1.41.41 1.42.41 1.41.42 1.42.43 1.41.43 1.41.44 1.41.44 1.41.46 1.41.47 1.41.48 1.41.5 1.4.51 1.4.53 1.4.54 1.39.56 1.39-1135.88-1135.88-.56-1.39-.55-1.4-.52-1.39-.51-1.4-.5-1.41-.48-1.4-.47-1.41-.46-1.41-.45-1.41-.43-1.41-.44-1.41-.42-1.42-.42-1.41-.41-1.41-.41-1.42-.41-1.41-.4-1.42-.41-1.41-.4-1.41-.41-1.41-.41-1.41-.41-1.41-.42-1.4-.42-1.41-.43-1.4-.44-1.39-.44-1.4-.46-1.39-.47-1.39-.48-1.38-.49-1.38z"/><path id="_390603408" class="fil1" d="M1164.45 1287.42 2300.33 2423.3l7.79 30.47-1135.88-1135.89z"/><path id="_390586560" class="fil1" d="m1172.24 1317.88 1135.88 1135.89.4.97.18.54.07.25.01.08-1135.89-1135.88-.01-.08-.06-.25-.18-.54z"/><path id="_390580224" class="fil1" d="m1173.08 1319.89 1135.88 1135.88.33.33.59.67L1174 1320.89l-.59-.67z"/><path id="_390604632" class="fil1" d="M830.089 983.307 1965.97 2119.19l-29.74-2.27L800.345 981.039z"/><path id="_390599544" class="fil1" d="m1177.87 1319.43 1135.88 1135.88.52 1.18.73 1.56.91 1.88 1.05 2.14 1.16 2.36 1.23 2.5 1.27 2.59 1.28 2.63 1.26 2.59 1.19 2.52 1.09 2.37.97 2.18.81 1.91.6 1.6.38 1.22.11.79-1135.88-1135.89-.11-.78-.38-1.23-.6-1.59-.81-1.92-.97-2.17-1.09-2.37-1.19-2.52-1.26-2.6-1.28-2.62-1.27-2.59-1.24-2.51-1.15-2.35-1.05-2.15-.91-1.88-.73-1.55z"/><path id="_390599976" class="fil1" d="m1205.9 1374.34 1135.88 1135.88 1.24 1.44.98 1.34.77 1.31.6 1.32.5 1.41.43 1.54.42 1.74.46 1.99-1135.89-1135.88-.45-2-.42-1.73-.44-1.55-.49-1.4-.61-1.33-.76-1.3-.98-1.34z"/><path id="_390588648" class="fil1" d="M800.345 981.039 1936.23 2116.92l-2.05-.3-1.98-.29-1.92-.29-1.87-.28-1.82-.28-1.77-.29-1.73-.29-1.68-.29-1.64-.29-1.6-.31-1.56-.31-1.53-.33-1.51-.33-1.47-.36-1.45-.36-1.43-.39-1.41-.4-1.39-.43-1.38-.44-1.37-.48-1.36-.49-1.36-.53-1.35-.55-1.35-.59-1.36-.62-1.36-.65-1.37-.69-1.38-.72-1.39-.77-1.41-.8-1.43-.85-1.45-.9L751.217 966.142l1.451.893 1.429.848 1.41.807 1.392.764 1.381.727 1.369.687 1.361.652 1.354.619 1.353.585 1.353.555 1.355.524 1.361.499 1.369.471 1.38.447 1.393.426 1.41.404 1.429.383 1.451.368 1.475.352 1.502.338 1.533.323 1.565.314 1.601.305 1.639.298 1.679.291 1.724.287 1.77.285 1.819.284 1.87.284 1.925.287 1.983.292z"/><path id="_390576456" class="fil1" d="M1209.89 1400.92 2345.77 2536.8l.03.81.09.48.1.24.05.12-.08.11-.25.2-.48.42-.79.73-1135.88-1135.88.78-.73.49-.42.25-.2.07-.11-.04-.12-.1-.24-.09-.48z"/><path id="_390577872" class="fil1" d="m1208.56 1404.03 1135.88 1135.88-.6.6-.35.35-.19.17-.16.08-.22.04-.42.09-.7.2-1.11.39-1135.88-1135.88 1.11-.39.7-.2.41-.09.23-.04.16-.08.19-.17.34-.36z"/><path id="_390578112" class="fil1" d="M684.585 901.822 1820.47 2037.7l-.79.01-.52.02-.35.01-.27-.06-.29-.16-.38-.31-.58-.51-.86-.73L680.547 900.086l.861.736.578.502.386.31.284.163.273.058.353-.006.521-.025z"/><path id="_390593568" class="fil1" d="m714.7 940.59 1135.88 1135.88-113.23 391.77L601.472 1332.36z"/><path id="_390600720" class="fil1" d="m1027.98 1402.37 1135.89 1135.89-1.38-.78-.81-.24-.4.03-.1.05L1025.3 1401.44l.1-.05.39-.03.82.24z"/><path id="_390599064" class="fil1" d="M1222.72 1144.83 2358.6 2280.71l-.33-.19-.67-.18-1.2-.37-1.9-.72-1135.88-1135.89 1.9.73 1.2.36.67.19z"/><path id="_390592056" class="fil1" d="M1218.62 1143.36 2354.5 2279.25l-.31.69-.51.79-.69.87-.84.94-.97 1.01-1.1 1.05-1.18 1.1-1.26 1.12-1.31 1.15-1.35 1.15-1.36 1.14-1.35 1.14-1.32 1.11-1.27 1.08-1.2 1.03-1.11.97-1135.88-1135.88 1.11-.98 1.2-1.03 1.27-1.07 1.32-1.11 1.35-1.14 1.36-1.15 1.35-1.15 1.31-1.14 1.26-1.12 1.18-1.1 1.1-1.05.97-1.01.84-.94.69-.87.51-.79z"/><path id="_390584592" class="fil1" d="m1141.14 1191.03 1135.88 1135.88-1.21 1.17-1.15 1.11-1.1 1.07-1.06 1.06-1.02 1.07-.98 1.12-.94 1.19-.92 1.29-1135.88-1135.88.92-1.29.94-1.19.98-1.12 1.02-1.08 1.06-1.05 1.1-1.07 1.15-1.11z"/><path id="_390580728" class="fil1" d="m1406.24 1495.58 1135.88 1135.88-1.9-.13-1.92-.1-1.94-.07-1.96-.05-1.99-.04-2.04-.03-2.08-.03-2.14-.04-2.19-.05-2.27-.08-2.35-.1-2.43-.14-2.51-.19-2.62-.23-2.72-.29-2.84-.36-1135.88-1135.88 2.84.35 2.72.3 2.61.23 2.52.19 2.43.14 2.35.1 2.26.08 2.2.05 2.14.04 2.08.03 2.04.03 1.99.04 1.96.05 1.94.07 1.92.1z"/><path id="_390597240" class="fil1" d="m1193.8 1352.56 1135.88 1135.88 1.05 1.05.78 1.01.56.99.4 1 .3 1.03.24 1.07.24 1.15.3 1.24.41 1.36.57 1.5.8 1.66 1.06 1.85 1.4 2.05 1.78 2.29 2.21 2.53L1205.9 1374.34l-2.21-2.54-1.78-2.28-1.4-2.05-1.06-1.85-.8-1.66-.57-1.5-.41-1.36-.3-1.24-.24-1.15-.24-1.07-.3-1.03-.4-1-.56-.99-.78-1.01z"/><path id="_390591624" class="fil1" d="M718.046 936.737 1853.93 2072.62l-1.21.85-.69.41-.31.14-.09.04-.01.09-.08.33-.3.72-.66 1.27L714.7 940.59l.658-1.275.296-.718.082-.325.011-.098.091-.037.316-.141.687-.411z"/><path id="_390585192" class="fil1" d="m1135.75 1405.26 1135.88 1135.89-2.5.38-2.34.42-2.2.44-2.07.46-1.96.49-1.85.5-1.78.51-1.71.53-1.66.53-1.62.54-1.6.55-1.59.55-1.6.54-1.63.54-1.67.54-1.72.53-1.8.51-1.88.5-1.98.49-2.1.46-2.24.44-2.38.42-2.54.39-2.72.36-2.92.33-3.13.29-3.35.26-3.59.21-3.85.17-4.11.13-4.4.08-4.71.02-1135.88-1135.88 4.7-.03 4.41-.08 4.11-.12 3.85-.17 3.59-.22 3.35-.25 3.13-.29 2.91-.33 2.73-.36 2.54-.39 2.38-.42 2.23-.44 2.11-.46 1.98-.49 1.88-.5 1.79-.51 1.73-.53 1.67-.54 1.63-.54 1.6-.55 1.59-.54 1.6-.55 1.62-.54 1.66-.54 1.71-.52 1.77-.52 1.86-.5 1.96-.48 2.07-.46 2.2-.44 2.34-.42z"/><path id="_390594168" class="fil1" d="M1137.12 1478.04 2273 2613.92l-2.06-.14-1.54-.17-1.2-.2-1.02-.22-1.02-.21-1.19-.2-1.55-.17-2.06-.14-1135.88-1135.88 2.06.13 1.55.18 1.19.2 1.02.21 1.02.21 1.2.2 1.54.18z"/><path id="_390595080" class="fil1" d="m1057.09 1416.92 1135.88 1135.89-1.53-.21-1.9-.21-2.19-.24-2.42-.28-2.56-.34-2.66-.43-2.67-.53-2.61-.65-2.49-.78-2.29-.94-2.03-1.12-1.7-1.3-1135.88-1135.89 1.7 1.31 2.03 1.11 2.29.95 2.49.78 2.61.65 2.67.52 2.65.43 2.57.35 2.42.28 2.19.24 1.9.21z"/><path id="_390574824" class="fil1" d="m1064.16 1472.43 1135.88 1135.89-1.54-.15-1.71-.11-1.88-.09-2.02-.07-2.16-.07-2.27-.05-2.38-.06-2.46-.06-2.52-.08-2.58-.09-2.62-.11-2.63-.15-2.65-.18-2.63-.22-2.61-.26-2.56-.32-1135.88-1135.88 2.56.31 2.61.27 2.63.22 2.64.18 2.64.14 2.62.12 2.58.09 2.52.08 2.46.06 2.38.06 2.27.05 2.15.06 2.03.08 1.88.09 1.71.11z"/><path id="_390591456" class="fil1" d="m1026.94 1470.37 1135.88 1135.88-171.71-11.64L855.231 1458.73z"/><path id="_390591720" class="fil1" d="M855.231 1458.73 1991.11 2594.61l-1.27-.16-1.34-.13-1.41-.12-1.46-.1-1.51-.09-1.54-.09-1.58-.08-1.6-.08-1.62-.08-1.62-.09-1.61-.1-1.6-.12-1.59-.13-1.55-.15-1.52-.18-1.47-.2L830.937 1456.83l1.472.2 1.517.18 1.555.15 1.583.13 1.604.11 1.615.1 1.619.09 1.614.09 1.6.08 1.578.08 1.548.08 1.51.09 1.461.11 1.407.11 1.341.14z"/><path id="_390583296" class="fil1" d="M830.937 1456.83 1966.82 2592.71l-2.37-.33-2.42-.27-2.44-.24-2.47-.19-2.48-.15-2.48-.13-2.46-.1-2.45-.09-2.41-.07-2.38-.06-2.32-.06-2.26-.07-2.18-.07-2.11-.09-2.01-.1-1.9-.13L793.799 1454.68l1.904.13 2.009.1 2.103.09 2.185.07 2.259.07 2.321.06 2.374.06 2.416.07 2.446.09 2.467.1 2.478.13 2.477.15 2.467.19 2.445.23 2.414.28z"/><path id="_390597960" class="fil1" d="M601.472 1332.36 1737.35 2468.24l-.26.9-.33 1.07-.39 1.24-.44 1.39-.48 1.53-.52 1.66-.56 1.77-.6 1.88-.62 1.97-.64 2.05-.66 2.12-.66 2.17-.68 2.22-.68 2.26-.67 2.27-.67 2.28-.65 2.29-.64 2.26-.61 2.24-.58 2.2-.56 2.16-.51 2.09-.47 2.01-.42 1.94-.38 1.83-.31 1.72-.25 1.61-.18 1.47-.11 1.32-.03 1.17.05 1 .13.82L587.092 1389.27l-.137-.82-.049-1 .033-1.17.109-1.33.184-1.47.25-1.6.312-1.72.371-1.84.422-1.93.472-2.02.514-2.09.551-2.15.585-2.2.612-2.24.635-2.27.653-2.28.667-2.28.675-2.28.678-2.25.675-2.22.669-2.17.658-2.12.641-2.05.619-1.97.593-1.88.561-1.77.524-1.66.483-1.53.437-1.39.385-1.24.33-1.07z"/><path id="_390578400" class="fil1" d="M610.412 1441.62 1746.29 2577.51l-1.63-.06-1.57-.07-1.52-.09-1.47-.1-1.42-.11-1.39-.12-1.35-.12-1.32-.13-1.3-.12-1.29-.11-1.26-.11-1.27-.09-1.26-.08-1.26-.06-1.27-.04-1.29-.01L588.54 1440.21l1.286.01 1.272.04 1.264.06 1.261.08 1.261.09 1.27.11 1.282.11 1.299.12 1.325.13 1.351.12 1.385.12 1.423.11 1.47.1 1.517.09 1.572.07z"/><path id="_390591768" class="fil1" d="M793.799 1454.68 1929.68 2590.56l-183.39-13.05L610.412 1441.62z"/><path id="_390603144" class="fil1" d="m739.25 1486.14 1135.88 1135.88-1.01 1.97-1.05 1.78-1.09 1.61-1.14 1.44-1.21 1.28-1.3 1.13-1.38.99-1.5.84-1.61.72-1.74.59-1.89.48-2.05.37-2.22.27-2.4.18-2.6.09-2.81.01L712.253 1499.89l2.806-.02 2.597-.09 2.402-.17 2.219-.27 2.048-.37 1.889-.48 1.745-.59 1.613-.72 1.494-.85 1.387-.98 1.293-1.13 1.212-1.28 1.143-1.44 1.088-1.61 1.045-1.78z"/><path id="_390596016" class="fil1" d="M712.253 1499.89 1848.13 2635.77l-205.19-.02L507.061 1499.87z"/><path id="_390577584" class="fil1" d="M507.061 1499.87 1642.94 2635.75l-3 .02-2.85.06-2.69.08-2.55.07-2.42.05-2.31.01-2.19-.04-2.1-.13-2.02-.22-1.95-.33-1.88-.47-1.83-.62-1.79-.79-1.77-.99-1.75-1.19-1.74-1.42L472.22 1493.96l1.743 1.42 1.748 1.19 1.764.98 1.793.8 1.832.62 1.883.47 1.944.33 2.017.22 2.101.12 2.197.05 2.304-.01 2.422-.05 2.551-.08 2.692-.07 2.844-.06z"/><path id="_390576480" class="fil1" d="m1211.29 1386.43 1135.89 1135.88.59 2.67.48 2.3.36 1.95.26 1.63.15 1.35.06 1.09-.04.86-.12.67-.19.5-.26.37-.33.27-.39.19-.43.15-.48.13-.52.16-.55.2-1135.88-1135.88.55-.2.52-.16.48-.13.43-.15.39-.2.33-.26.26-.37.19-.5.12-.67.03-.87-.05-1.09-.15-1.34-.26-1.63-.36-1.95-.48-2.3z"/><path id="_390590712" class="fil1" d="M1055.73 949.903 2191.61 2085.79l1 1.16.8 1.43.59 1.71.36 2.01.13 2.35L1058.61 958.566l-.13-2.346-.36-2.014-.59-1.708-.8-1.426z"/><path id="_390582960" class="fil1" d="M1100.81 933.763 2236.69 2069.64l-.88-.51-1.23-.74-1.57-.94-1.88-1.13-2.16-1.31-2.42-1.46-2.65-1.6-2.87-1.74-3.06-1.84-3.23-1.95-3.36-2.02-3.48-2.09-3.57-2.14-3.65-2.18-3.68-2.19-3.71-2.2-3.7-2.19-3.68-2.17-3.62-2.12-3.55-2.07-3.45-1.99-3.33-1.91-3.18-1.8-3.01-1.69-2.82-1.55-2.59-1.4-2.35-1.24-2.09-1.06-1.79-.86-1.48-.66-1.14-.42-.78-.19L1014.85 884.397l.78.187 1.14.427 1.48.653 1.79.865 2.09 1.058 2.35 1.239 2.59 1.402 2.82 1.552 3.01 1.686 3.18 1.803 3.32 1.908 3.46 1.993 3.55 2.066 3.62 2.124 3.68 2.164 3.7 2.189 3.71 2.202 3.68 2.197 3.64 2.175 3.58 2.142 3.48 2.089 3.36 2.024 3.23 1.942 3.05 1.846 2.87 1.733 2.66 1.606 2.42 1.462 2.16 1.306 1.88 1.13 1.57.941 1.23.737z"/><path id="_390589968" class="fil1" d="m1263.49 1153.55 1135.88 1135.88-.97.69-1.33.9-1.63 1.08-1.89 1.21-2.1 1.32-2.26 1.39-2.36 1.44-2.42 1.45-2.42 1.42-2.38 1.37-2.29 1.28-2.14 1.16-1.95 1-1.71.82-1.41.59-1.07.34-1135.88-1135.88 1.07-.34 1.41-.6 1.71-.81 1.95-1 2.14-1.16 2.29-1.28 2.38-1.37 2.42-1.42 2.42-1.45 2.36-1.44 2.26-1.39 2.1-1.33 1.89-1.21 1.63-1.07 1.33-.9z"/><path id="_390590136" class="fil1" d="m1201.49 1159.71 1135.88 1135.88-19.26 15.67-1135.88-1135.89z"/><path id="_390603168" class="fil1" d="m1565.57 1504.87 1135.88 1135.88-.62.1-.97.08-1.29.04-1.61.03-1.88-.01-2.15-.02-2.4-.05-2.61-.06-2.81-.08-2.99-.1-3.14-.12-3.28-.12-3.39-.14-3.48-.16-3.56-.16-3.6-.17-3.62-.17-3.64-.18-3.61-.19-3.58-.19-3.52-.19-3.44-.19-3.34-.18-3.21-.19-3.07-.18-2.9-.17-2.71-.17-2.5-.16-2.28-.15-2.02-.14-1.74-.12-1.45-.12-1135.89-1135.88 1.46.11 1.74.13 2.02.14 2.27.15 2.51.16 2.71.16 2.9.18 3.07.18 3.21.18 3.34.19 3.44.19 3.52.19 3.58.19 3.61.18 3.64.19 3.62.17 3.6.17 3.55.16 3.49.15 3.39.14 3.28.13 3.14.12 2.99.1 2.81.08 2.61.06 2.39.05 2.15.02h1.89l1.6-.02 1.3-.04.97-.08z"/><path id="_390602088" class="fil1" d="m1479.15 1501.24 1135.89 1135.88-72.92-5.66-1135.88-1135.88z"/><path id="_390589608" class="fil1" d="m1370.34 1493.65 1135.88 1135.88-1.34-.18-1.38-.16-1.4-.16-1.43-.15-1.46-.14-1.48-.13-1.5-.13-1.52-.12-1.54-.11-1.55-.11-1.56-.11-1.58-.1-1.59-.1-1.59-.1-1.6-.1-1.61-.09-1.6-.09-1.61-.09-1.6-.1-1.6-.09-1.59-.09-1.58-.1-1.57-.1-1.56-.1-1.55-.11-1.52-.11-1.51-.12-1.49-.12-1.47-.12-1.44-.14-1.42-.14-1.39-.14-1135.88-1135.89 1.39.15 1.42.14 1.44.13 1.47.13 1.49.12 1.51.12 1.52.11 1.55.1 1.56.11 1.57.1 1.58.09 1.59.1 1.6.09 1.6.09 1.61.1 1.6.09 1.6.09 1.6.1 1.6.09 1.59.1 1.57.11 1.57.1 1.55.11 1.54.12 1.52.12 1.5.13 1.48.13 1.46.14 1.43.15 1.4.16 1.38.16z"/><path id="_390596472" class="fil1" d="M751.217 966.142 1887.1 2102.02l-1.01-.66-1.52-1.07-1.96-1.41-2.31-1.7-2.58-1.94-2.78-2.13-2.9-2.27-2.93-2.36-2.88-2.4-2.77-2.38-2.56-2.31L725.02 945.509l2.561 2.312 2.764 2.38 2.886 2.395 2.932 2.359 2.895 2.271 2.779 2.132 2.584 1.942 2.31 1.702 1.956 1.408 1.521 1.064z"/><path id="_390579144" class="fil1" d="m1204.81 1405.95 1135.88 1135.88-2.56.89-2.55.76-2.54.64-2.53.52-2.52.42-2.5.31-2.48.22-2.46.13-2.44.05-2.42-.02-2.4-.09-2.37-.15-2.34-.2-2.32-.24-2.28-.28-2.25-.31-2.21-.34-2.18-.35-2.14-.36-2.1-.36-2.06-.35-2.01-.35-1.97-.33-1.93-.3-1.87-.26-1.83-.23-1.77-.17-1.72-.13-1.66-.06-1.61.01-1.55.08-1.49.17-1135.88-1135.89 1.49-.16 1.55-.08 1.61-.01 1.66.06 1.72.12 1.77.18 1.83.23 1.87.26 1.93.3 1.97.33 2.01.34 2.06.36 2.1.36 2.14.36 2.18.35 2.21.34 2.25.31 2.28.28 2.32.24 2.34.2 2.37.15 2.39.09 2.42.02 2.45-.05 2.46-.14 2.48-.21 2.5-.32 2.52-.41 2.53-.52 2.54-.64 2.55-.76z"/><path id="_390592632" class="fil1" d="m1321.71 1489.89 1135.88 1135.89-147.36-9.79-1135.89-1135.88z"/><path id="_390588336" class="fil1" d="m1174.34 1480.11 1135.89 1135.88-2.29-.32-2.34-.27-2.37-.23-2.39-.19-2.42-.17-2.43-.13-2.43-.11-2.43-.09-2.41-.08-2.38-.07-2.35-.05-2.32-.06-2.26-.06-2.21-.07-2.13-.07-2.07-.1-1135.88-1135.88 2.06.09 2.14.08 2.21.07 2.26.06 2.31.05 2.36.06 2.38.07 2.41.07 2.43.1 2.43.11 2.43.13 2.42.16 2.39.2 2.37.23 2.34.27z"/><path id="_390600888" class="fil1" d="M737.215 1460.2 1873.1 2596.08l1.42 1.76 1.13 1.95.84 2.1.59 2.22.37 2.28.15 2.3-.02 2.29-.17 2.23-.3 2.13-.4 1.99-.48 1.81-.54 1.57-.56 1.31L739.25 1486.14l.561-1.31.534-1.58.482-1.8.403-1.99.301-2.13.172-2.23.019-2.29-.158-2.3-.363-2.29-.59-2.21-.845-2.1-1.123-1.95z"/><path id="_390602016" class="fil1" d="m1058.55 1418.38 1135.88 1135.88v1.46L1058.55 1419.83z"/><path id="_390601920" class="fil1" d="m1125.48 1476.59 1135.88 1135.88-61.32-4.15-1135.88-1135.89z"/><path id="_390603744" class="fil1" d="M1139.61 953.165 2275.49 2089.05l-.81-.31-.8-.33-.8-.33-.79-.34-.78-.35-.79-.36-.79-.36-.79-.37-.8-.37-.81-.38-.81-.38-.83-.39-.85-.39-.86-.39-.88-.39-.9-.38L1126.52 947.344l.9.389.88.389.86.389.85.387.83.385.81.383.81.378.8.374.79.37.79.364.78.357.79.349.79.34.8.332.8.323z"/><path id="_390604872" class="fil1" d="M1126.52 947.344 2262.4 2083.23l-.98-.43-.94-.42-.89-.41-.86-.41-.83-.41-.8-.41-.79-.42-.77-.41-.76-.43-.77-.43-.77-.45-.78-.46-.8-.47-.82-.49-.85-.51-.88-.53L1113.23 940.261l.88.529.85.508.82.489.8.474.78.457.77.445.76.435.77.426.77.418.79.413.8.411.83.41.86.411.89.414.94.418z"/><path id="_390595008" class="fil1" d="M1113.23 940.261 2249.11 2076.14l-1.65-.95-1.6-.86-1.56-.79-1.52-.75-1.51-.74-1.51-.75-1.52-.79-1.55-.87L1100.81 933.763l1.55.864 1.52.794 1.51.751 1.51.737 1.52.75 1.56.79 1.59.859z"/><path id="_390577992" class="fil1" d="m1150.56 956.47 1135.88 1135.88-.25-.22-.26-.13-.31-.08-.41-.07-.56-.08-.76-.13-.99-.22-1.29-.33-1.64-.49-2.02-.67-2.46-.88L1139.61 953.165l2.46.887 2.02.669 1.63.484 1.3.334.99.214.76.133.56.081.41.066.31.083.25.135z"/><path id="_390575568" class="fil1" d="m1385.4 1218.48 1135.88 1135.89-2.67.87-2.67.9-2.67.89-2.66.9-2.67.88-2.65.86-2.65.84-2.63.8-2.63.76-2.61.71-2.59.65-2.58.59-2.56.51-2.55.43-2.52.35-2.5.24-2.47.14-2.45.03-2.42-.09-2.4-.22-2.36-.35-2.33-.5-2.3-.65-2.26-.81-2.22-.97-2.19-1.15-2.15-1.34-2.11-1.52-2.06-1.72-2.02-1.93-1135.88-1135.88 2.02 1.93 2.06 1.72 2.11 1.52 2.15 1.33 2.19 1.15 2.22.98 2.26.81 2.3.65 2.33.5 2.36.35 2.4.22 2.42.09 2.45-.03 2.47-.14 2.5-.25 2.52-.34 2.55-.43 2.56-.51 2.58-.59 2.59-.65 2.61-.71 2.63-.76 2.63-.81 2.65-.83 2.65-.87 2.66-.88 2.67-.89 2.67-.9 2.67-.89z"/><path id="_390583416" class="fil1" d="m1576.4 1460.68 1135.88 1135.88 1.32 1.48 1.2 1.54 1.07 1.62.93 1.67.82 1.72.68 1.76.56 1.8.44 1.83.32 1.84.19 1.85.07 1.86-.05 1.86-.17 1.84-.28 1.82-.41 1.79-.52 1.76-.64 1.72-.75 1.67-.86 1.6-.98 1.54-1.1 1.47-1.2 1.39-1.31 1.29-1.43 1.2-1.53 1.1-1.64.98-1.75.86-1.85.74-1.96.59-1135.88-1135.88 1.96-.6 1.85-.73 1.75-.86 1.64-.98 1.53-1.1 1.43-1.2 1.31-1.29 1.2-1.39 1.1-1.47.97-1.54.87-1.61.75-1.66.64-1.72.52-1.76.41-1.79.28-1.83.17-1.84.05-1.85-.07-1.86-.19-1.85-.32-1.85-.44-1.82-.56-1.8-.69-1.76-.81-1.72-.94-1.67-1.06-1.62-1.2-1.55z"/><path id="_390583272" class="fil1" d="M1026.82 819.536 2162.7 1955.42l1.94 2.28 1.97 2.86 2 3.53 2.03 4.26L1034.76 832.472l-2.03-4.267-2-3.527-1.97-2.864z"/><path id="_390599712" class="fil1" d="M1034.76 832.472 2170.64 1968.35l.79 1.92.62 1.64.55 1.4.59 1.2.74 1.06L1038.05 839.691l-.74-1.059-.6-1.207-.54-1.401-.62-1.636z"/><path id="_390598992" class="fil1" d="m1439.79 1201.59 1135.88 1135.89-.56.3-.77.35-.97.4-1.16.44-1.32.48-1.49.52-1.64.54-1.76.58-1.88.6-1.98.63-2.07.64-2.15.65-2.2.67-2.25.67-2.28.68-2.3.68-2.3.68-2.29.67-2.27.66-2.22.64-2.18.63-2.1.61-2.03.58-1.92.56-1.82.52-1.7.49-1.55.45-1.41.41-1.24.37-1.06.32-.86.26-.66.21L1385.4 1218.48l.66-.2.86-.27 1.06-.31 1.24-.37 1.4-.41 1.56-.45 1.7-.49 1.81-.52 1.93-.56 2.03-.58 2.1-.61 2.18-.63 2.22-.64 2.27-.66 2.29-.67 2.3-.68 2.3-.68 2.28-.68 2.25-.67 2.2-.67 2.14-.66 2.08-.64 1.98-.62 1.88-.6 1.76-.58 1.63-.55 1.49-.51 1.33-.48 1.16-.44.97-.4.77-.35z"/><path id="_390577824" class="fil1" d="M1412.4 868.609 2548.29 2004.49l-.36 3.07-.36 3.04-.36 3.02-.37 3-.37 2.97-.38 2.96-.39 2.94-.38 2.92-.4 2.9-.4 2.89-.4 2.88-.41 2.87-.42 2.86-.41 2.84-.43 2.84-.43 2.84-.43 2.83-.44 2.82-.44 2.83-.45 2.82-.46 2.83-.45 2.82-.47 2.83-.46 2.84-.48 2.84-.47 2.84-.49 2.86-.48 2.87-.49 2.88-.5 2.89-.5 2.9-.51 2.92L1398.62 961.071l.51-2.921.5-2.906.49-2.89.5-2.878.48-2.867.48-2.857.48-2.847.47-2.841.47-2.835.46-2.828.46-2.827.46-2.824.44-2.824.45-2.824.44-2.826.43-2.83.43-2.835.42-2.84.42-2.848.42-2.857.41-2.866.4-2.879.4-2.891.39-2.906.39-2.921.39-2.937.38-2.956.37-2.975.37-2.997.36-3.019.36-3.042z"/><path id="_390593064" class="fil1" d="m1578.21 1204.29 1135.88 1135.88.24.85.26.96.28 1.06.28 1.15.28 1.23.3 1.32.29 1.38.29 1.45.28 1.51.28 1.56.26 1.6.25 1.63.24 1.66.21 1.69.19 1.69.17 1.71.13 1.7.1 1.7.07 1.68.03 1.67-.01 1.63-.06 1.59-.1 1.56-.15 1.5-.21 1.44-.26 1.38-.32 1.31-.38 1.23-.45 1.14-.51 1.05-.59.95-.66.84L1578.94 1249.1l.66-.84.59-.95.51-1.04.45-1.15.38-1.22.32-1.31.26-1.38.21-1.45.15-1.5.1-1.55.06-1.6.01-1.63-.03-1.66-.07-1.68-.1-1.7-.14-1.7-.16-1.71-.19-1.7-.21-1.68-.24-1.66-.25-1.64-.26-1.6-.28-1.55-.28-1.51-.29-1.45-.3-1.38-.29-1.32-.29-1.23-.28-1.15-.27-1.06-.26-.96z"/><path id="_390598008" class="fil1" d="M1261.4 567.605 2397.29 1703.49l2.76 3.62 2.53 3.91 2.26 4.22 1.99 4.54 1.71 4.86L1272.66 588.759l-1.71-4.862-1.99-4.537-2.27-4.222-2.52-3.915z"/><path id="_390587136" class="fil1" d="M1272.66 588.759 2408.54 1724.64l.6 2.08.54 2.16.48 2.22.42 2.28.36 2.34.3 2.39.24 2.44.18 2.47.13 2.51.07 2.53.02 2.56-.03 2.58-.09 2.59-.14 2.59-.19 2.59-.25 2.58-.29 2.58-.34 2.56-.39 2.53-.44 2.51-.48 2.47-.53 2.43-.58 2.39-.62 2.33-.66 2.28-.71 2.22-.75 2.14-.78 2.08-.83 1.99-.87 1.91-.91 1.82-.94 1.72L1265.18 663.631l.94-1.722.91-1.819.87-1.91.82-1.994.79-2.074.75-2.149.71-2.216.66-2.278.62-2.335.58-2.386.53-2.432.48-2.472.44-2.505.39-2.535.34-2.557.29-2.574.25-2.586.19-2.591.14-2.593.09-2.586.03-2.576-.02-2.559-.07-2.535-.13-2.509-.18-2.475-.25-2.435-.3-2.391-.35-2.339-.42-2.283-.48-2.222-.54-2.154z"/><path id="_390594072" class="fil1" d="M1258.23 680.967 2394.11 1816.85l-.17 1.05-.14 1.22-.1 1.37-.07 1.49-.05 1.6-.02 1.67-.01 1.74.01 1.77.02 1.77.04 1.77.03 1.72.04 1.67.03 1.59.03 1.48.02 1.36.01 1.2L1257.9 705.438l-.01-1.203-.02-1.355-.03-1.482-.03-1.587-.04-1.669-.04-1.728-.03-1.765-.02-1.776-.01-1.767.01-1.734.02-1.676.05-1.597.07-1.495.1-1.369.14-1.22z"/><path id="_390580704" class="fil1" d="M1406.01 822.068 2541.89 1957.95l1.26 1.47 1.14 1.58 1.03 1.69.92 1.81.8 1.94.7 2.1.58 2.25.48 2.42.36 2.6.26 2.79.16 2.99.04 3.22-.06 3.43-.16 3.68-.27 3.93-.37 4.18-.47 4.46L1412.4 868.609l.48-4.458.37-4.187.27-3.925.16-3.677.06-3.438-.05-3.212-.15-2.996-.26-2.792-.36-2.601-.48-2.42-.58-2.25-.7-2.093-.8-1.945-.92-1.811-1.03-1.688-1.14-1.574z"/><path id="_390578448" class="fil1" d="M1541.06 1093.02 2676.94 2228.9l.8 2.05.73 1.97.66 1.91.59 1.83.53 1.78.46 1.7.41 1.65.36 1.58.3 1.52.26 1.47.21 1.41.17 1.36.14 1.3.1 1.25.07 1.2.04 1.15.01 1.11v1.06l-.03 1.02-.04.98-.05.93-.06.9-.07.86-.06.83-.07.79-.06.76-.06.73-.04.7-.03.67-.02.65.01.63.03.6-1135.88-1135.88-.03-.61-.01-.62.02-.65.03-.67.04-.7.06-.73.06-.76.07-.8.06-.82.07-.86.06-.9.05-.94.04-.97.02-1.02.01-1.06-.01-1.11-.05-1.15-.06-1.2-.1-1.25-.14-1.31-.17-1.35-.21-1.41-.26-1.47-.3-1.52-.36-1.59-.41-1.64-.47-1.71-.52-1.77-.59-1.84-.66-1.9-.73-1.98z"/><path id="_390605208" class="fil1" d="M1530.01 1073.52 2665.89 2209.4l.88 1.33.83 1.27.8 1.21.77 1.16.73 1.12.71 1.1.68 1.1.67 1.09.64 1.1.64 1.13.62 1.16.61 1.21.62 1.26.61 1.34.62 1.41.62 1.51-1135.88-1135.88-.62-1.51-.62-1.42-.61-1.33-.62-1.27-.61-1.2-.63-1.17-.63-1.12-.64-1.1-.67-1.1-.68-1.09-.71-1.1-.73-1.13-.77-1.16-.8-1.2-.84-1.27z"/><path id="_478210144" class="fil1" d="M1484.64 1191.05c.018.347-.228-.128 0 0zm-220.924-433.288 29.678 12.504 2.62 1.52c.12-.256.569.32.819.527 6.894 1.44 30.239 12.435 38.39 15.8 12.825 5.292 25.26 10.732 37.667 16.173 33.393 14.643 45.096 15.275 39.51 64.327-3.741 32.857-8.368 61.22-13.782 92.462-4 23.084 6.253 19.26-3.326 44.673-4.934 13.09-4.844 25.752-12.535 26.842-4.846.688-6.31-1.918-8.452-4.177l-9.284 5.085c-3.347-1.276-1.78-2.187-5.353-2.74-3.228-.498-6.636 2.506-11.618-2.36-8.866-8.661.38 1.723-13.033-7.26l4.083-19.299c1.312-7.431-5.092-19.599 7.94-32.704 7.934-7.981 4.423-3.049 5.696-16.13 2.555-26.252 1.198-58.86 1.198-87.564l-56.522-16.252c-3.241-1.01-1.035.118-3.138-1.29-5.668-.002-12.069-2.396-16.007-4.285 3.03 20.011 17.462 111.274 17.462 119.813 1.686 6.062 2.814 13.7 4.36 19.882 5.924 23.68 41.411 113.854 42.204 123.854 7.081 12.434 12.216 26.45 18.916 39.114l57.628-14.551c5.346-.157 12.71-2.275 19.078-3.326 5.732-.947 11.929-2.494 19.417-2.494 1.156-1.05.285-.394 2.33-1.968l18.318-15.216c.49-.538 2.569-3.064 2.587-3.08 2.66-2.443-.34-1.367 2.87-1.572 2.465-3.92 3.973-5.031 9.366-8.102 13.94-7.938 4.163-8.054 15.955-16.045 3.038-2.059 7.347-4.07 10.855-4.947 3.034-1.768 7.272-1.455 10.389-1.455 4.8 7.32 7.702 11.186 11.054 19.503 8.949 22.196 4.82 32.036 5.292 38.346 1.58 21.062 20.558 34.675 31.858 72.925 2.503 8.471 8.17 36.447.733 44.813-2.518 2.834-1.324 1.882-3.829 1.944-.838 1.334-.662 4.689-10.332 5.737-23.155 2.513-25.46-13.26-36.691-35.842-1.812-3.645-3.046-6.524-5.432-9.135-3.864-4.228-.243-1.697-8.66-1.51-6.247-12.772-3.07-7.72-10.186-5.821l-2.91-5.82-10.186 1.454-2.902-5.82c-2.242-2.897-.778-.389-2.14-2.122-.603-.768-.897-1.048-1.03-1.124-.01-.157-.073-.486-.26-1.12-14.906.976-30.047 10.343-44.597 11.669-4.724 2.942-48.558 14.99-54.385 16.888-28.503 9.284-57.175 22.016-77.45-4.4l-44.462-60.533c-4.135 3.084-25.644 16.369-30.329 17.461l-8.755-21.694c-2.973-6.622.398-3.363-5.789-5.953-1.1 3.44-11.484 11.317-17.128 16.345l-19.257 15.666-12.977-13.096c-5.838 1.5-22.321 23.052-28.118 28.75-3.293 3.237-5.967 5.482-8.378 9.083l17.252 42.41c5.49 14.654 8.365 30.076 14.434 44.898l7.794 30.464c1.4 3.271-.242.652 1.757 3.003 2.713-1.685-.21-.373 3.87-1.455 2.153 5.145 14.741 29.068 14.56 32.013 8.293 6.145.398 8.662 13.476 22.894 3.688 4.013 4.08 6.389 5.391 12.088 3.53 15.322 1.602 13.232-1.406 14.49-.068 2.727 1.223.639-1.331 3.11-2.05 1.985-.152.576-3.75 1.921-27.347 10.218-53.515-2.924-69.055-.683-27.593 3.982-25.36 13.114-77.203 13.114v1.456c33.65 1.966 78.64 3.54 110.803 7.061 4.3.47 8.544-.039 12.801.295 5.94.466 17.55.837 24.42 1.772l318.99 21.508c6.112.489 17.328.84 24.421 1.77 6.75.885 16.074.897 21.662 4.53 19.013 12.358 15.378 42.472-6.076 48.102-4.672 1.226-72.596-2.523-86.415-3.63l-72.912-5.663c-10.146-.814-20.475.157-35.9-1.933-14.159-1.917-33.982-2.132-48.632-3.753l-147.367-9.786c-12.063-1.82-26.437-1.528-37.22-2.065-6.346-.317-5.296-1.15-11.642-1.456l-61.326-4.153c-7.677-.841-23.68-.223-37.22-2.067l-171.704-11.641c-6.563-.894-16.58-.735-24.295-1.898-12.522-1.891-27.278-1.379-37.137-2.151l-183.388-13.054c-8.878-.217-14.967-1.417-21.872-1.417l9.935 6.079 57.023 4.091c5.444-.014 71.345 5.001 75.36 6.126 14.337 4.018 11.415 23.447 8.392 29.64-5.357 10.98-11.45 13.874-26.997 13.745l-205.192-.021c-16.49 0-25.543 2.302-34.84-5.903-12.747-11.25-9.781-46.45 2.785-63.985 20.971-29.266 43.257-19.176 56.792-18.874 6.401-18.785 2.889-13.231 10.774-21.24 4.517-4.585 9.956-28.914 12.679-38.248 12.42-42.576 126.679-432.97 129.334-449.794-2.511-.062-1.286.575-4.038-1.736l-46.531-46.651c-13.951-14.061-10.546-6.963-10.546-38.927v-49.474l79.437 54.433c3.434 2.377 5.325 3.376 8.711 5.84l42.807 29.949c3.052 2.166 4.926 3.783 8.432 6.12l26.733 18.375 117.083 44.434c6.911 2.458 15.283 5.206 20.916 8.186v14.552l107.68-.003c12.648-.036 23.316-1.791 23.338 11.646.023 13.216-11.782 11.674-24.793 11.64l-106.225-.001v13.096c-22.157 0-77.809 1.07-97.5.007l-29.744-2.27c-22.115-3.208-33.528-5.13-49.128-14.895-3.868-2.421-33.036-23.901-33.171-29.406-4.034 2.99-.98-.44-3.346 3.854L601.468 1332.36c-2.515 8.62-16.326 49.17-14.38 56.912 10.254-3.96 20.417.051 30.542.024l117.482 7.657c10.556 1.439 85.792 6.437 102.293 6.84l190.622 13.096c7.823.05 12.933 1.493 29.062 1.493v-1.454c-7.094-1.096-32.654-1.75-29.11-14.551-4.546-3.013-1.596 2.458-3.066-5.822-4.938-27.827 33.625-28.118 48.264-31.93 17.728-4.616-.153-10.267 17.38-10.267v-8.73l7.276-2.911v-8.73l8.723-.65c-3.42-6.1-7.786-14.992-8.236-21.178l-1.336-1.856a68.953 68.953 0 0 1-1.175-1.917l-33.945-82.487c-18.722-43.348-15.722-42.835 12.104-84.57 5.054-7.584 29.583-42.836 31.14-48.368-2.831-4.762.674-6.502 4.143-10.922l27.47-38.02c5-6.699 15.924-24.43 20.771-26.88v-15.72c-2.498-5.062-2.43-15.017-2.95-20.984-.688-7.897-1.967-10.778-1.063-20.413-5.862-6.865.491-1.478-13.87-6.854-4.36-1.633-8.226-3.75-13.095-5.82-5.377-2.29-8.481-4.205-13.288-7.084-4.504-2.695-8.246-4.076-12.419-6.498-7.389-4.291-79.694-48.717-85.959-49.366-36.395-3.764-35.293-21.326-61.071-34.966 10.196-22.943 3.469-11.607 3.458-22.767-.005-5.43 5.44-2.775 7.985-9.443 3.133-8.204-.783-8.534 11.839-8.534l1.455-8.73c23.282 4.142 8.273.764 23.517 9.95 12.748 7.681 21.763-2.301 32.728 22.566 2.434 5.521 1.841 7.588 7.514 9.947l92.796 35.308c16.236 6.544 9.05 2.763 10.65-26.948.345-6.387.647-5.524 1.955-7.17-1.543-15.758 6.857-34.91 12.232-45.606 6.337-12.606 13.557-24.84 23.778-33.332v-17.1l-41.11-12.728c-9.904-8.879-16.915-17.853-19.637-32.748-2.07-11.328-4.523-92.389-1.823-100.604-17.44-28.928-5.654-44.478 23.248-51.849 43.897-11.196 111.667-14.509 128.29 39.116 6.752 21.78 2.797 57.033-7.481 74.872-1.81 6.603-6.06 12.931-6.945 17.337-1.023 5.09-.33 18.5-.33 24.47 0 10.877 1.454 17.747 1.454 29.916 2.536 3.454 4.366 15.918 4.366 22.404z"/></g></g><path d="M1024 0c565.539 0 1024 458.461 1024 1024s-458.461 1024-1024 1024S0 1589.539 0 1024 458.461 0 1024 0z" style="fill:none"/><g id="_470778536"><path id="_470769368" class="fil3" d="M1172.94 1322.33c5.732 17.82-4.067 22.944-22.338 31.763-18.266 8.81-31.52 5.298-40.331-12.974l-53.645-130.443c-8.813-18.273-1.149-40.232 17.12-49.045 18.268-8.813 29.525 1.882 43.836 16.266 27.256 27.386 55.357 144.434 55.358 144.434z"/><path id="_470784056" class="fil4" d="M1164.05 1288.88a3535.02 3535.02 0 0 0-12.095 4.569c-17.7 6.718-35.304 14.089-53.668 18.536l11.984 29.136c8.813 18.272 22.065 21.783 40.33 12.975 18.273-8.82 28.07-13.943 22.338-31.764.001 0-3.362-14.003-8.89-33.452z"/><path id="_470771384" class="fil3" d="M1132.86 1199.63c-19.507 19-42.283 34.613-63.207 21.495-20.925-13.115-23.443-34.246-10.326-55.178l103.56-155.978c16.618-26.49 44.707-18.015 71.205-1.393 26.5 16.614 33.164 36.203 16.547 62.697l-117.78 128.356z"/><path id="_470782160" d="M1282.21 1004.23c-1.507-1.284-117.256 3.386-118.827 5.224l-58.958 81.711c20.468 20.476 57.809 63.694 78.279 84.158l105.934-91.254c20.27-23.82 17.394-59.565-6.428-79.839z" style="fill:#003c69"/><path id="_470768072" class="fil6" d="M1177.99 1320.89s4.462 14.054 15.663 30.558c3.823 5.629 4.868 15.399 7.267 20.267 9.861 2.14 12.985 25.087 11.3 29.101-1.463 6.72-34.789 13.37-55.783 5.98-14.608-5.141-26.477-.265-42.906 4.609-15.681 4.654-35.515 9.308-65.85 5.25-29.849-3.994-23.724-32.426-13.841-40.002 13.83-6.104 29.067-6.637 40.685-8.454 36.17-5.633 15.598-25.166 36.501-37.633 17.848 10.274 33.425 15.78 44.104 12.744 16.259-4.622 14.379-22.11 22.86-22.42z"/><path id="_470772200" class="fil7" d="M1162.11 1391.88c15.373 5.414 36.491 4.26 50.212.717-1.057-8.212-4.649-19.423-11.396-20.887-2.4-4.868-3.444-14.638-7.268-20.267-11.2-16.504-15.663-30.558-15.663-30.558-8.48.31-6.6 17.798-22.86 22.42-10.678 3.036-26.255-2.47-44.103-12.744-20.903 12.467-.33 32-36.5 37.633-11.62 1.817-26.856 2.35-40.686 8.455-5.378 4.124-9.629 14.416-7.591 23.593 3.076 1.355 6.73 2.381 11.04 2.959 34.814 4.653 57.577-.687 75.574-6.028 18.854-5.596 32.475-11.191 49.24-5.293z"/><path id="_470775392" class="fil8" d="M1202.9 1372.48c-.63-.345-1.285-.621-1.978-.77-2.4-4.869-3.444-14.639-7.268-20.268-11.2-16.503-15.663-30.557-15.663-30.557-8.48.31-6.6 17.798-22.86 22.42-10.678 3.036-26.255-2.47-44.103-12.745-20.903 12.468-10.71 32.001-46.88 37.634-11.623 1.816-16.476 2.35-30.306 8.454-1.335 1.035-2.598 2.436-3.715 4.099 3.138 1.84 7.118 3.217 12.137 3.889 30.334 4.056 50.17-.596 65.851-5.25 16.432-4.876 28.3-9.751 42.908-4.61 17.05 5.997 42.233 2.744 51.877-2.296z"/><path id="_470767808" class="fil6" d="M1132.8 1361.82c12.742 2.395 29.308 5.825 42.243 2.725 7.575-1.817 14.093-5.832 19.954-10.755a19.746 19.746 0 0 0-1.337-2.342c-11.2-16.504-15.664-30.558-15.664-30.558-8.48.31-6.6 17.798-22.859 22.42-10.488 2.982-25.704-2.284-43.152-12.207 2.685 11.264 8.087 28.32 20.815 30.717z"/><path id="_470770016" class="fil9" d="M1104.2 1367.04a4.143 4.143 0 0 1-5.458 2.167l-14.073-6.075a4.15 4.15 0 1 1 3.294-7.62l14.074 6.069c2.1.91 3.072 3.359 2.163 5.459z"/><path id="_470795840" class="fil9" d="M1111.67 1355.68a3.795 3.795 0 0 1-4.991 1.982l-12.878-5.558a3.805 3.805 0 0 1-1.984-4.995 3.805 3.805 0 0 1 4.995-1.985l12.88 5.563a3.792 3.792 0 0 1 1.978 4.993z"/><path id="_470781896" class="fil9" d="M1118.46 1345.21a3.803 3.803 0 0 1-4.996 1.987l-12.876-5.563a3.8 3.8 0 0 1-1.982-4.995 3.792 3.792 0 0 1 4.992-1.979l12.877 5.557a3.793 3.793 0 0 1 1.985 4.993z"/><path id="_470791592" class="fil10" d="m1071.47 1366.72.03-.01-.03.01zm.054-.015c4.871-1.25 8.642-2.836 11.67-4.657l.007.009c-3.025 1.82-6.806 3.402-11.677 4.649v-.001zm18.49-10.318-2.045-.88 2.036.876a35.497 35.497 0 0 0 2.496-3.213 34.414 34.414 0 0 1-2.486 3.217z"/><path id="_470794064" d="M1070.02 1418.21h-.01.01zm.01 0c17.998-.004 31.496-3.266 42.81-6.596-11.316 3.33-24.81 6.595-42.81 6.596zm-21.772-1.478h-.007.007zm-.572-.075-.076-.01.076.01zm-.106-.014c-.016-.004-.03-.005-.046-.007.015.002.03.003.046.007zm-.08-.011a.639.639 0 0 0-.069-.008c.024.001.045.005.069.008zm-.108-.014c-.011-.002-.02-.005-.032-.006.012.001.02.004.032.006zm-.078-.012a.074.074 0 0 0-.022-.003c.01 0 .013 0 .022.003zm-.193-.027-.004-.002c.003 0 .003.002.004.002zm66.755-5.271c.051-.017.1-.03.15-.046l-.152.046h.002zm.412-.124c11.11-3.323 20.153-6.576 29.44-6.58-9.287.004-18.33 3.257-29.44 6.58zm42.156-4.387zm-12.691-2.192h-.007.007z" style="fill:#4b4b4b"/><path id="_470775584" class="fil10" d="M1082.58 1357.5zm5.347-2.01c-.018-.007-.036-.014-.054-.023l.054.024v-.001zm-1.605-.327h-.01H1086.322zm5.508-8.1zm4.919-1.966-.013-.006.013.006zm-1.437-.287h-.006.006z"/><path id="_470772512" class="fil12" d="m1104.84 1335.2-1.25-.54 1.252.536c0 .003-.003.003-.003.004h.001zm2.209-1.907-50.425-122.617 50.425 122.617zm-54.221-153.103.002-.009c0 .003 0 .006-.002.009zm.019-.067c1.333-4.67 3.504-9.427 6.48-14.174-2.975 4.747-5.147 9.503-6.48 14.174zm54.299-86.197c-.934-.96-1.852-1.887-2.725-2.767.878.88 1.79 1.801 2.728 2.762l-.003.005z"/><path id="_470776472" class="fil8" d="m1114.23 1339.25-9.383-4.048s.002 0 .002-.003l.012.006a36.119 36.119 0 0 1 2.2-1.897l-.005-.013c1.19-.94 2.506-1.85 3.978-2.73.319.185.637.366.953.547.598 2.503 1.328 5.29 2.243 8.138z"/><path id="_470767640" class="fil13" d="M1100.39 1369.55c-.55 0-1.11-.11-1.648-.345l-14.072-6.075a4.161 4.161 0 0 1-1.474-1.07l-.008-.01.013-.008a4.14 4.14 0 0 1-.7-4.373c.027-.058.05-.113.08-.167a4.146 4.146 0 0 1 3.72-2.338H1086.322c.517 0 1.043.1 1.55.305.02.008.037.015.055.024.013.004.025.01.037.016l2.045.88 12.029 5.19a4.158 4.158 0 0 1-1.648 7.971z"/><path id="_470773880" class="fil13" d="M1108.18 1357.97c-.503 0-1.013-.1-1.502-.313l-12.878-5.558a3.942 3.942 0 0 1-.44-.226.07.07 0 0 0 .008-.013 3.79 3.79 0 0 1-1.533-4.797 3.808 3.808 0 0 1 3.458-2.254h.024a3.781 3.781 0 0 1 1.436.287c.019.007.039.014.058.024l.413.178v.001l12.467 5.384a3.792 3.792 0 0 1 1.978 4.992 3.802 3.802 0 0 1-3.49 2.295z"/><path id="_470785112" class="fil12" d="M1098.6 1336.64zm3.491-2.293h-.006.006z"/><path id="_470796776" class="fil13" d="M1114.96 1347.51a3.827 3.827 0 0 1-1.504-.31l-12.876-5.564a3.854 3.854 0 0 1-.788-.46c.005-.003.006-.006.01-.01a3.782 3.782 0 0 1-1.204-4.525 3.798 3.798 0 0 1 3.47-2.292h.022a3.78 3.78 0 0 1 1.5.314l1.25.54 9.383 4.048 2.244.97a3.793 3.793 0 0 1 1.986 4.992 3.795 3.795 0 0 1-3.493 2.297z"/><path id="_470789696" class="fil3" d="M1474.18 1123.84c18.211-4.328 22.553 5.846 29.911 24.743 7.362 18.905 2.82 31.842-16.083 39.2l-133.46 39.739c-18.9 7.36-40.197-2-47.552-20.9-7.363-18.906 4.187-29.284 19.643-42.428 29.438-25.03 147.541-40.354 147.541-40.354z"/><path id="_470785016" class="fil4" d="M1504.09 1148.58c-7.358-18.896-11.7-29.07-29.911-24.743 0 0-25.225 3.267-55.26 9.263 1.81 6.234 3.918 12.364 5.774 18.284 4.708 15.053 9.835 30.019 13.74 45.31.468 1.805.907 3.626 1.363 5.438l48.212-14.351c18.904-7.358 23.444-20.296 16.082-39.2z"/><path id="_470769848" class="fil3" d="M1365.26 1154.29c10.36 25.195 16.349 52.146-3.634 66.664-19.974 14.525-40.523 8.976-55.04-10.996l-108.104-146.222c-18.392-25.304-7.769-33.587 17.531-51.975l1.373 3.55c25.306-18.395 54.33-43.469 72.72-18.173l75.154 157.152z"/><path id="_470781584" class="fil14" d="M1458.98 1126.72s12.531-7.768 25.79-22.664c4.52-5.082 13.736-8.49 17.87-12.005-.34-10.089 21.148-18.733 25.448-18.081 6.877-.226 21.48 30.456 19.452 52.62-2.746 30.145 29.04 40.779 36.182 103.038 3.436 29.916-25.634 30.933-35.388 23.204-9.307-11.915-13.561-26.551-18.164-37.375-8.33-19.613-16.521-19.43-25.309-19.247-6.307.13-12.921.261-20.112-6.934 5.593-19.82 7.122-36.268 1.56-45.88-8.46-14.627-24.96-8.523-27.329-16.676z"/><path id="_470772944" d="M1531.7 1124.74c1.483-16.23-4.806-36.424-11.596-48.855-7.71 3.033-17.699 9.256-17.465 16.16-4.135 3.516-13.35 6.923-17.87 12.006-13.26 14.896-25.792 22.664-25.792 22.664 2.37 8.153 18.868 2.049 27.33 16.677 5.564 9.61 4.033 26.06-1.56 45.879 7.192 7.195 13.805 7.064 20.112 6.934 8.788-.183 16.979-.366 25.309 19.247 4.603 10.824 8.856 25.46 18.164 37.375 5.304 4.208 16.325 5.811 24.722 1.592.57-3.315.662-7.109.168-11.425-8.2-71.454-44.683-83.655-41.522-118.254z" style="fill:#0077c7"/><path id="_470795672" d="M1502.9 1089.94c-.178.692-.285 1.397-.265 2.11-4.135 3.516-13.35 6.923-17.87 12.005-13.259 14.896-25.791 22.665-25.791 22.665 2.369 8.153 18.868 2.049 27.329 16.677 5.564 9.61 4.034 26.06-1.559 45.879 17.206 17.215 33.65 2.553 47.962 36.24 4.606 10.831 6.314 15.4 15.623 27.316 1.314 1.04 2.987 1.927 4.876 2.6 1.014-3.493 1.372-7.69.797-12.717-7.143-62.26-38.933-72.895-36.181-103.037 1.642-17.998-7.679-41.619-14.921-49.738z" style="fill:#005a96"/><path id="_470784440" class="fil14" d="M1509.72 1160.52c-.796-12.93-1.522-29.837-7.696-41.62-3.61-6.896-9.103-12.238-15.307-16.714a19.425 19.425 0 0 0-1.944 1.869c-13.26 14.896-25.792 22.664-25.792 22.664 2.37 8.153 18.868 2.05 27.33 16.677 5.458 9.436 4.07 25.489-1.27 44.822 10.264-5.357 25.475-14.768 24.679-27.698z"/><path id="_470782304" class="fil9" d="M1521.78 1186.97a4.15 4.15 0 0 1 3.436 4.761l-2.445 15.128a4.15 4.15 0 0 1-4.766 3.435 4.148 4.148 0 0 1-3.434-4.755l2.448-15.137a4.145 4.145 0 0 1 4.761-3.432z"/><path id="_470773592" class="fil9" d="M1508.94 1182.51a3.801 3.801 0 0 1 3.137 4.36l-2.237 13.848a3.795 3.795 0 0 1-4.358 3.142 3.798 3.798 0 0 1-3.148-4.352l2.24-13.853a3.808 3.808 0 0 1 4.366-3.145z"/><path id="_470789456" class="fil9" d="M1497.13 1178.49a3.796 3.796 0 0 1 3.143 4.355l-2.24 13.854a3.8 3.8 0 0 1-7.5-1.22l2.241-13.847c.33-2.07 2.283-3.47 4.356-3.142z"/><path id="_470792936" class="fil12" d="m1551.93 1254.93-.086-.034-.06-.03c.05.02.098.043.146.064zm-1.413-.68-.031-.014a7.942 7.942 0 0 1-.09-.051l.121.066v-.001zm-1.575-.965a9.55 9.55 0 0 1-.612-.455c-9.307-11.915-11.016-16.484-15.623-27.317 4.607 10.832 6.315 15.402 15.623 27.317h.001c.195.155.398.307.61.455zm34.795-23.48-.002-.03.002.03zm-.01-.083c0-.032-.005-.064-.009-.096l.01.096zm-52.407-7.315-.006-.008.006.01v-.002zm-.032-.067c-2.982-6.308-6.056-10.66-9.204-13.778a.143.143 0 0 0 .011-.016c3.143 3.123 6.214 7.49 9.193 13.795v-.001zm-16.716-16.804.355-2.192c-1.715-.879-3.449-1.568-5.194-2.15v-.003c1.751.582 3.482 1.261 5.195 2.138l-.356 2.207zm-12.235-6.033.07-.446h.003l-.073.446zm-17.478-10.633.045-.168h.002c-.014.058-.032.112-.047.168zm-122.908-41.494-19.108-39.956h.002l19.108 39.953c17.173-5.606 37.306-10.325 55.745-14.03-18.439 3.707-38.576 8.428-55.747 14.033zm57.002-14.285c.295-.06.587-.12.878-.175-.293.06-.584.116-.878.175zm1.498-.296c.218-.045.438-.09.66-.132.618-.12 1.232-.248 1.845-.365.283-.055.568-.106.849-.159-1.111.214-2.229.433-3.355.656zm3.434-.671c.04-.01.08-.017.118-.024.087-.017.173-.034.258-.048-.126.023-.25.048-.376.072zm.637-.123c.456-.09.91-.179 1.362-.266.297-.054.594-.112.887-.164l-2.249.43zm2.631-.502c.266-.053.532-.103.799-.151l-.8.15h.001zm1.912-.362c.207-.04.42-.081.63-.119.757-.14 1.51-.281 2.26-.418.05-.008.098-.015.146-.025-1.003.184-2.015.372-3.036.562zm3.194-.59c.078-.014.156-.03.233-.046.734-.132 1.462-.268 2.186-.395-.797.144-1.607.29-2.419.44zm115.11-.344c0-1.176.055-2.38.167-3.615.004-.029.005-.055.007-.08a39.944 39.944 0 0 0-.175 3.696zm-111.085-.385c.539-.097 1.074-.191 1.603-.29.286-.045.566-.097.847-.146.061-.01.123-.02.184-.032l-2.634.468zm3.553-.63c.23-.038.456-.08.68-.12.316-.054.63-.107.943-.164.524-.091 1.048-.182 1.568-.268.362-.065.725-.124 1.084-.188.262-.042.524-.085.783-.13-1.639.279-3.329.57-5.058.87zm5.786-.993c.328-.058.654-.11.98-.165.425-.07.852-.145 1.274-.213.337-.059.67-.112 1-.165-1.06.175-2.147.358-3.254.543zm3.44-.573 1.188-.197.287-.045c-.487.078-.98.161-1.474.242zm2.09-.344.068-.011c.314-.05.63-.103.937-.151l-1.005.162zm1.65-.266.486-.078-.487.078h.001zm.855-.138c.285-.049.569-.089.845-.136.377-.06.748-.12 1.117-.176.347-.057.686-.109 1.023-.162.33-.05.657-.106.977-.152.32-.051.626-.1.933-.144-1.541.237-3.177.494-4.895.77zm5.345-.841c.182-.027.362-.058.542-.088.263-.037.519-.079.78-.114a96.921 96.921 0 0 0 .003 0l-1.325.202zm88.587-.071c.002-.036.003-.071.007-.105l-.008.105h.001zm-65.61-18.87c.004-.002.005-.005.01-.009a.036.036 0 0 0-.01.01zm.075-.079c.003-.003.007-.01.012-.014l-.012.014zm.067-.072.021-.022-.021.022zm.072-.076.052-.056-.052.057v-.001zm.084-.089.05-.052-.05.052zm.064-.07.051-.053c-.017.02-.034.036-.051.054zm.064-.068.24-.256-.24.256zm.24-.256zm1.87-2.052c.018-.017.032-.034.048-.052l-.048.052zm.07-.078c.014-.015.03-.03.042-.046l-.041.046zm.076-.084.035-.04-.036.04h.001zm53.256-19.26c-3.469-6.599-7.152-10.943-9.76-10.943 2.608 0 6.291 4.346 9.76 10.943zm-29.546-2.379.035-.03.253-.203c-.097.077-.191.155-.288.233zm17.52-8.415h.005-.006zm.006-.001c.647-.12 1.208-.181 1.662-.181a3.45 3.45 0 0 1 .002 0c-.453 0-1.017.061-1.664.18zm2.185-.146c.026-.002.05-.002.075-.002-.025 0-.051 0-.075.002z"/><path id="_470775176" class="fil6" d="m1563.18 1256.87.054-.002-.054.002zm.07-.005c3.35-.149 6.749-.912 9.803-2.446.57-3.315.662-7.109.168-11.425-8.2-71.454-44.683-83.655-41.522-118.254 1.483-16.23-4.806-36.424-11.596-48.855a51.51 51.51 0 0 0-4.513 2.034l.04-.02c.994-.51 1.987-.973 2.962-1.39l.08-.04c2.768-1.189 5.352-2.01 7.22-2.357h.006s0-.002.002-.002c.647-.12 1.21-.18 1.664-.18.193 0 .368.011.52.035.025-.003.05-.003.075-.003 2.608 0 6.292 4.344 9.76 10.943 5.63 10.701 10.693 27.326 9.68 40.95-.004.033-.006.069-.008.104a42.467 42.467 0 0 1-.054.626 39.944 39.944 0 0 0-.167 3.616c-.013 27.49 29.499 39.717 36.35 99.423.003.031.008.063.009.095a.439.439 0 0 1 .007.053l.002.03c1.5 13.528-3.679 21.094-10.685 24.618l-.013.007c-3.05 1.53-6.445 2.295-9.79 2.439zm-56.267-173.12.008-.007.006-.006-.014.013zm1.37-1.2.02-.019c.097-.078.192-.156.288-.232.313-.248.633-.493.96-.731l.016-.013c-.44.323-.87.656-1.284.995zm3.469-2.485c.705-.447 1.43-.874 2.163-1.282l.055-.031a45.21 45.21 0 0 0-2.218 1.313z"/><path id="_470782520" d="M1562.04 1256.9c-.828 0-1.651-.038-2.461-.11l-.166-.015c-.48-.047-.952-.102-1.42-.17l-.316-.053c-.409-.06-.819-.135-1.217-.221l-.413-.087c-.361-.081-.714-.17-1.068-.262l-.465-.126c-.324-.1-.643-.2-.957-.31l-.353-.114c1.014-3.493 1.371-7.688.796-12.716-7.142-62.26-38.932-72.894-36.18-103.037 1.641-17.998-7.679-41.618-14.921-49.737a8.635 8.635 0 0 0-.233 1.26c.01-.102.022-.2.033-.3l.057-.343c.052-.287.117-.572.196-.856l.092-.307c.12-.37.263-.732.437-1.098l.11-.205c.152-.304.32-.602.498-.895l.215-.337c.188-.275.389-.554.599-.835l.178-.232c.275-.343.568-.68.879-1.016l.248-.255c.25-.261.506-.516.771-.771l.013-.013.304-.276c.33-.3.67-.596 1.025-.885l.028-.026c.415-.34.844-.673 1.284-.996l.278-.197a44.01 44.01 0 0 1 1.04-.726l.28-.185a44.32 44.32 0 0 1 2.806-1.695l.187-.101c.44-.241.879-.482 1.325-.704l.038-.023c1.53-.78 3.06-1.462 4.512-2.034 6.791 12.431 13.08 32.627 11.596 48.855-3.16 34.6 33.321 46.8 41.522 118.254.495 4.316.401 8.11-.168 11.425-3.054 1.535-6.453 2.298-9.802 2.446-.006 0-.012.003-.016.003l-.055.002c-.379.014-.76.024-1.136.024zm-10.094-1.96-.019-.007c-.048-.02-.096-.043-.145-.063l-.015-.007.178.078h.001zm-1.393-.668-.038-.019c-.042-.021-.083-.042-.122-.065-.027-.016-.055-.03-.084-.048.08.045.16.09.242.132h.002zm-1.528-.925a13.01 13.01 0 0 1 0 0zm-46.391-161.296c-.001-.085-.004-.172-.001-.258-.003.086 0 .173.001.258z" style="fill:#757575"/><path id="_470783984" class="fil7" d="m1553.21 1255.43-.168-.066c-.282-.102-.555-.21-.828-.326l-.262-.1-.18-.078-.051-.028c-.272-.118-.525-.25-.787-.376l-.376-.187a7.98 7.98 0 0 1-.243-.132c-.208-.118-.405-.24-.602-.36l-.36-.223a12.391 12.391 0 0 1-1.02-.724h.001c-9.308-11.915-11.017-16.483-15.623-27.316a84.027 84.027 0 0 0-1.388-3.105c-.001-.005-.004-.006-.006-.01-.007-.021-.016-.039-.026-.058-2.979-6.306-6.05-10.672-9.192-13.795a4.162 4.162 0 0 0 .676-1.69l2.446-15.128a4.15 4.15 0 0 0-4.109-4.814c-2 0-3.761 1.448-4.089 3.486l-2.091 12.929c-1.714-.876-3.446-1.555-5.195-2.138.045-.154.083-.314.109-.478l2.237-13.847a3.803 3.803 0 0 0-3.749-4.41 3.805 3.805 0 0 0-3.755 3.194l-2.166 13.407h-.002v-.002a61.28 61.28 0 0 1-4.623-1.491c.115-.27.196-.56.247-.862l2.24-13.854a3.804 3.804 0 0 0-1.256-3.473c6.229-5.03 11.16-11.35 10.698-18.856-.796-12.93-1.522-29.837-7.696-41.62-3.61-6.896-9.103-12.239-15.307-16.714a19.425 19.425 0 0 0-1.944 1.869c4.52-5.082 13.735-8.49 17.87-12.005v-.001c-.001-.085-.004-.173-.001-.259 0-.198.014-.395.033-.59.045-.425.125-.846.232-1.26 7.243 8.118 16.563 31.74 14.921 49.737-2.752 30.143 29.039 40.777 36.181 103.037.575 5.028.217 9.223-.796 12.716v-.003.004zm-62.456-61.306c-1.993-1.268-3.99-2.835-6.006-4.85h.002c.04-.132.075-.266.112-.404.062-.22.123-.437.183-.657 2.28-1.189 4.801-2.58 7.34-4.163l-1.63 10.074z"/><path id="_470776880" class="fil8" d="M1485.04 1188.22c5.341-19.334 6.729-35.386 1.27-44.822-8.46-14.628-24.96-8.524-27.33-16.677h.001s1.663-1.031 4.418-3.061c4.273-3.15 11.177-8.706 18.587-16.564l.01-.01c.022-.022.042-.044.064-.07.004-.004.007-.009.013-.013l.054-.058.022-.023.05-.053.052-.057.032-.033c.018-.016.035-.035.051-.052a.09.09 0 0 1 .013-.016l.052-.054a.075.075 0 0 1 .013-.016l.24-.256c.62-.667 1.239-1.345 1.862-2.043.004-.003.006-.004.008-.009l.048-.052c.008-.01.015-.016.022-.026.016-.016.029-.03.042-.046l.033-.038c.012-.013.025-.027.035-.04.025-.024.045-.05.07-.074a19.425 19.425 0 0 1 1.944-1.869c6.204 4.476 11.697 9.819 15.307 16.714 6.174 11.783 6.9 28.69 7.696 41.62.462 7.506-4.47 13.827-10.698 18.856a3.77 3.77 0 0 0-2.492-.93 3.797 3.797 0 0 0-3.752 3.19l-.39 2.415c-2.539 1.584-5.06 2.974-7.34 4.163l-.007.004z"/><path id="_470780264" class="fil12" d="M1518.45 1210.34h-.017.017zm-.019-.002a4.15 4.15 0 0 1 0 0z"/><path id="_470767184" class="fil13" d="M1518.68 1210.35c-.074 0-.152-.001-.228-.005h-.016l-.003-.002a4.15 4.15 0 0 1-3.855-4.801l.357-2.208 2.091-12.93a4.144 4.144 0 0 1 4.761-3.43 4.148 4.148 0 0 1 3.436 4.76l-2.445 15.127a4.162 4.162 0 0 1-.688 1.707.012.012 0 0 0-.006-.007 4.155 4.155 0 0 1-3.404 1.79z"/><path id="_470778656" class="fil13" d="M1506.09 1203.9a3.798 3.798 0 0 1-3.756-4.4l.073-.447 2.166-13.407a3.805 3.805 0 0 1 4.366-3.145 3.801 3.801 0 0 1 3.138 4.36l-2.237 13.848a3.912 3.912 0 0 1-.109.478v.002a.046.046 0 0 0-.016-.005 3.791 3.791 0 0 1-3.625 2.716z"/><path id="_470780792" class="fil12" d="M1494.28 1199.89a3.797 3.797 0 1 1 .001.001 3.92 3.92 0 0 1-.002 0l.001-.001zm.172-.004h.012-.012z"/><path id="_470766656" class="fil13" d="M1494.28 1199.89a3.797 3.797 0 0 1-3.749-4.408l.22-1.358 1.63-10.074.39-2.415a3.796 3.796 0 0 1 4.357-3.142 3.77 3.77 0 0 1 1.887.882 3.8 3.8 0 0 1 1.256 3.473l-2.24 13.854c-.05.303-.133.593-.247.862a.026.026 0 0 0-.011-.003 3.812 3.812 0 0 1-3.311 2.325H1494.444a2.52 2.52 0 0 1-.164.004z"/><path id="_470784488" d="M1264.29 768.186c1.98 20.398-19.397 25.095-43.25 27.412-23.861 2.319-29.656 26.025-31.637 5.63 0 0-6.754-62.6-8.461-123.011-.579-20.486 1.254-34.542 25.108-36.858 23.86-2.317 51.71 9.896 51.71 30.39 0 69.397 6.53 96.437 6.53 96.437z" style="fill:#b09176"/><path id="_470787944" class="fil3" d="M1257.68 688.55c2.11 19.801-38.283 57.363-69.598 58.175l-6.933-.243c-31.314.812-57.362-23.912-58.175-55.227l-1.642-63.07c-4.423-63.532 23.908-57.362 55.224-58.178l21.312.248c31.31-.817 57.355 23.908 58.175 55.226l1.637 63.069z"/><path id="_470783768" class="fil6" d="M1257.48 680.878c56.062-114.174-25.481-144.292-64.52-137.622-118.675 4.936-67.365 53.365-71.118 57.7 115.347-23.632 92.291 45.903 113.623 47.633 21.34 1.73 7.126 24.79 22.015 32.29z"/><path id="_470783792" class="fil3" d="M1264.85 658.366c0 10.5-8.506 19.008-19.002 19.008-10.497 0-19.007-8.508-19.007-19.008 0-10.495 8.51-19.004 19.007-19.004 10.496 0 19.002 8.509 19.002 19.004z"/><path id="_470785520" class="fil19" d="M1257.79 680.238zm2.916-6.178a.104.104 0 0 1 .01-.024c-.003.007-.006.017-.01.024z"/><path id="_470797232" d="M1257.72 688.934v-.008.008zm-.01-.117v-.019.02zm-.003-.048-.002-.023c0 .007 0 .016.002.023zm-.006-.049zm-.005-.067-.004-.032c.002.01.002.021.003.032h.001zm-.006-.053c0-.016-.003-.032-.005-.05l.005.05zm-.204-7.726a105.907 105.907 0 0 1 0 0z" style="fill:#bf9e83"/><path id="_470769920" class="fil3" d="M1390.22 811.446c19.886 8.478 29.137 31.466 20.659 51.352-8.475 19.884-28.956 11.659-48.847 3.182l-133.178-38.33c-19.883-8.475-29.132-31.469-20.654-51.353 8.477-19.883 31.471-29.13 51.35-20.656l130.67 55.805z"/><path id="_470773568" d="m1298.15 772.126-38.602-16.485c-19.878-8.475-42.873.773-51.35 20.657-8.478 19.883.772 42.878 20.653 51.353l69.704 20.914-.405-76.439z" style="fill:#ad0000"/><path id="_470784200" class="fil3" d="M1398.19 965.315c-.621 14.42-10.239 17.157-24.66 16.53-14.414-.616-19.333.887-18.711-13.53l1.398-124.589c.838-19.36 5.407-33.731 24.775-32.892 19.365.837 33.69 12.592 33.544 36.575-.173 29.726-16.346 117.906-16.346 117.906z"/><path id="_470773664" class="fil3" d="M1351.65 989.253a6.36 6.36 0 0 1 4.198 7.962l-6.648 22.55a6.37 6.37 0 0 1-7.957 4.2 6.375 6.375 0 0 1-4.206-7.962l6.65-22.55a6.367 6.367 0 0 1 7.963-4.2z"/><path id="_470790872" class="fil3" d="M1391.61 996.193a6.533 6.533 0 0 1 4.313 8.167l-6.813 23.072a6.528 6.528 0 0 1-8.163 4.311 6.535 6.535 0 0 1-4.316-8.173l6.81-23.064a6.533 6.533 0 0 1 8.169-4.313z"/><path id="_470796896" class="fil3" d="M1364.28 993.161a6.857 6.857 0 0 1 4.53 8.574l-7.133 24.108a6.86 6.86 0 0 1-13.108-4.054l7.131-24.103c1.12-3.62 4.959-5.652 8.58-4.525z"/><path id="_470781104" class="fil3" d="M1377.78 995.961a6.853 6.853 0 0 1 4.527 8.577l-7.13 24.1a6.86 6.86 0 0 1-8.578 4.529 6.852 6.852 0 0 1-4.528-8.576l7.127-24.106a6.857 6.857 0 0 1 8.582-4.524z"/><path id="_470769464" class="fil3" d="M1342.06 1001.9s-2.081-10.743-1.757-14.346c1.959-22.072 27.343-32.38 41.255-28.083 20.84 6.444 20.228 27.521 15.926 41.443l-3.506 9.667-51.918-8.681z"/><path id="_470792360" class="fil22" d="M1358.7 1013.64a4.1 4.1 0 0 1-3.98-5.096c1.952.441 3.95.656 5.955.656.699 0 1.403-.026 2.102-.078a4.097 4.097 0 0 1-4.077 4.518z"/><path id="_470778584" class="fil22" d="M1346.27 1009.81a4.101 4.101 0 0 1-2.816-7.084c.68.686 1.438 1.297 2.233 1.84.935.667 1.937 1.228 2.956 1.75.504.24 1.003.485 1.51.716a4.7 4.7 0 0 1-.246.582 4.1 4.1 0 0 1-3.637 2.196z"/><path id="_470777720" class="fil23" d="M1341.59 999.297c.184 1.126.976 2.007 1.76 2.758.818.748 1.74 1.38 2.713 1.917.965.553 1.978 1.014 2.99 1.477 1.028.422 2.064.866 3.114 1.161 2.1.63 4.306.929 6.502 1.035 2.197.11 4.41-.01 6.55-.433 2.117-.432 4.25-1.126 5.851-2.383.808-.607 1.439-1.365 1.724-2.233.048-.219.13-.435.138-.665l.03-.306-.011-.424c-.032-.374-.16-.859-.38-1.219-.441-.765-1.275-1.332-2.227-1.694-.952-.365-2.015-.543-3.083-.614-2.141-.134-4.362.086-6.453.711l-.013.004a.563.563 0 0 1-.468-1.016c.38-.242.795-.604 1.157-.96.36-.373.71-.762 1.007-1.193a12.326 12.326 0 0 0 1.482-2.786c.152-.508.341-1.013.431-1.542.129-.522.193-1.056.246-1.594.103-1.077.08-2.168 0-3.264.212 1.074.393 2.17.377 3.28-.006.555-.02 1.114-.1 1.667-.042.559-.19 1.103-.304 1.656-.162.538-.32 1.085-.553 1.604a9.424 9.424 0 0 1-.799 1.506c-.3.489-.656.939-1.033 1.377-.396.43-.783.822-1.304 1.201l-.482-1.012c2.197-.774 4.524-1.204 6.89-1.116 1.18.057 2.374.226 3.54.643 1.15.417 2.338 1.122 3.069 2.32.363.604.57 1.23.638 1.98l.018.42c-.003.24-.018.358-.029.54-.013.334-.112.664-.19.992-.4 1.301-1.277 2.351-2.262 3.104-2.009 1.495-4.33 2.158-6.613 2.59-4.592.783-9.332.472-13.711-1.09-1.107-.382-2.124-.886-3.156-1.383-1.02-.521-2.02-1.081-2.956-1.75-.946-.647-1.84-1.386-2.612-2.24-.753-.841-1.45-1.878-1.488-3.026z"/><path id="_470790392" class="fil23" d="M1378.9 1013.96s-.04-.52.015-1.435c.08-.907.174-2.226.605-3.768.202-.77.503-1.597.917-2.439.443-.823.963-1.715 1.788-2.435.766-.758 1.853-1.324 3.007-1.53l.879-.1c.404-.03.554.015.842.019.482-.008 1.117.132 1.702.243 1.123.33 2.195.934 3.007 1.79.848.836 1.281 1.93 1.578 2.936.304 1.025.322 2.036.308 2.965-.03.935-.16 1.798-.334 2.576-.33 1.563-.85 2.778-1.188 3.622-.38.834-.618 1.294-.618 1.294s.096-.516.296-1.397c.196-.878.402-2.154.527-3.663.062-.754.071-1.567.026-2.411-.07-.84-.184-1.721-.477-2.546-.286-.822-.7-1.623-1.32-2.218-.608-.608-1.393-1.033-2.256-1.277-.772-.195-1.922-.333-2.695-.187-.833.148-1.645.45-2.287 1.033-1.343 1.075-2.164 2.687-2.768 4.051-.587 1.392-.985 2.623-1.207 3.495a33.753 33.753 0 0 0-.347 1.382z"/><path id="_470792480" class="fil23" d="m1376.34 1023.67.681-3.562c.4-2.114.962-4.918 1.16-7.694.068-.696.082-1.384.074-2.056-.043-.666-.046-1.329-.172-1.937-.196-1.236-.647-2.286-1.307-2.994a4.013 4.013 0 0 0-1.044-.847c-.35-.233-.708-.337-.99-.47l-.953-.287s.359-.045 1.018-.051c.322.045.737.035 1.183.197.455.12.97.342 1.444.711 1.002.7 1.787 1.994 2.135 3.408.396 1.42.431 2.958.337 4.449-.23 2.994-1.108 5.825-1.937 7.855-.822 2.038-1.629 3.278-1.629 3.278z"/><path id="_470773016" class="fil23" d="M1362.53 1023.01s-.198-1.044-.193-2.596a24.7 24.7 0 0 1 .66-5.641c.264-1.005.544-2.011.936-2.919.366-.913.799-1.742 1.271-2.392a4.8 4.8 0 0 1 .68-.858c.218-.244.409-.449.61-.582.38-.281.596-.417.596-.417l-.33.634c-.198.395-.446.966-.674 1.675-.473 1.4-.95 3.318-1.408 5.26-.473 1.938-.937 3.902-1.363 5.376-.408 1.473-.785 2.46-.785 2.46z"/><path id="_470772440" class="fil23" d="M1349.14 1019.87s-.089-.857.012-2.093c.09-1.238.353-2.855.786-4.433.445-1.574 1.03-3.11 1.655-4.213.56-1.123 1.277-1.725 1.234-1.716l-.079.585c-.07.347-.127.847-.217 1.46a46.259 46.259 0 0 1-.372 2.038c-.152.742-.356 1.524-.554 2.307-.44 1.554-.984 3.09-1.495 4.213-.496 1.13-.97 1.852-.97 1.852z"/><path id="_470773232" class="fil22" d="M1372.19 1015.49a4.113 4.113 0 0 1-4.11-4.107 4.106 4.106 0 0 1 8.213 0 4.11 4.11 0 0 1-4.103 4.107z"/><path id="_470768912" class="fil12" d="M1382.87 1032.04h-.004.004zm.034 0a6.53 6.53 0 0 0 6.2-4.605h.001a6.534 6.534 0 0 1-6.202 4.605h.001zm-1.962-.295zm-1.014-.408c-.004 0-.01-.003-.013-.004.005 0 .01.003.013.005zm-4.752-2.696 1.248-4.213v.002l-1.248 4.21zm23.01-63.324s16.171-88.179 16.346-117.906v-.117.117c-.174 29.726-16.347 117.906-16.347 117.906zm16.346-118.093v-.042.042zm-23.919-35.605c-.132-.057-.262-.115-.394-.17.132.055.264.113.394.17z"/><path id="_470787464" class="fil24" d="M1382.87 1032.04h-.004a6.557 6.557 0 0 1-1.924-.294v-.001a6.73 6.73 0 0 1-.998-.397c-.004-.005-.01-.006-.016-.01a.063.063 0 0 0-.013-.005c-2.628-1.332-4.038-4.304-3.395-7.23l-.096.327v-.002l.564-1.911c.282-.544.628-1.262.977-2.125.814-1.99 1.672-4.746 1.922-7.675l1.266-4.274 1.224.206a4.76 4.76 0 0 0 3.894 7.498 4.764 4.764 0 0 0 4.579-6.081l1.412.236c.041.818.03 1.607-.03 2.342-.125 1.508-.331 2.785-.526 3.663a38.92 38.92 0 0 0-.297 1.397s.239-.46.618-1.295c.34-.843.859-2.058 1.188-3.621.156-.694.277-1.455.322-2.274l.442.074.533-1.468-5.407 18.315a6.534 6.534 0 0 1-6.202 4.605h-.033z"/><path id="_470777120" class="fil24" d="m1375.18 1028.64 2.717-20.741.088.014c.037.164.071.333.098.506.125.609.129 1.271.171 1.937.009.673-.007 1.361-.074 2.057-.196 2.775-.758 5.58-1.159 7.693-.407 2.138-.681 3.563-.681 3.563s.268-.413.652-1.153l-.565 1.911-1.247 4.213zm4.71-15.924c.006-.06.012-.12.016-.18.044-.696.059-1.403.023-2.103.157-.424.333-.876.53-1.345.103-.23.21-.468.327-.707l.37.061-1.266 4.274zm-.25-4.36a2.915 2.915 0 0 0-.045-.175l.093.017-.048.158z"/><path id="_470769560" class="fil25" d="M1391.41 1017.7s.096-.516.296-1.397c.197-.878.402-2.155.527-3.663a17.827 17.827 0 0 0 .026-2.412c-.07-.838-.184-1.72-.477-2.545-.286-.822-.7-1.623-1.32-2.218-.608-.608-1.393-1.034-2.256-1.277a8.432 8.432 0 0 0-1.944-.249c-.27 0-.527.019-.75.061-.834.15-1.646.452-2.288 1.034-1.116.893-1.872 2.158-2.442 3.344-.117.24-.223.478-.326.707-.196.469-.373.921-.53 1.345a11.046 11.046 0 0 0-.29-2.077l.048-.157c.19-.606.44-1.237.755-1.876.443-.823.964-1.715 1.788-2.435.766-.759 1.853-1.324 3.007-1.531l.879-.1c.1-.006.185-.009.262-.009.226 0 .365.027.58.029h.035c.48 0 1.095.135 1.667.243 1.123.33 2.196.934 3.007 1.79.848.836 1.281 1.93 1.578 2.936.305 1.025.322 2.036.308 2.965a13.69 13.69 0 0 1-.334 2.576c-.33 1.563-.85 2.778-1.188 3.622-.38.833-.618 1.294-.618 1.294z"/><path id="_470772176" class="fil25" d="m1376.34 1023.67.681-3.562c.4-2.114.962-4.918 1.16-7.694.068-.696.082-1.384.074-2.056-.043-.666-.046-1.329-.172-1.937a7.823 7.823 0 0 0-.157-.753l.298-2.267c.619.715 1.096 1.669 1.345 2.687.01.03.019.063.026.094a11.06 11.06 0 0 1 .334 2.252 18.354 18.354 0 0 1-.039 2.284c-.248 2.929-1.109 5.684-1.921 7.674a24.525 24.525 0 0 1-.977 2.125c-.384.74-.652 1.153-.652 1.153z"/><path id="_470775008" class="fil26" d="M1386.27 1016.14a4.76 4.76 0 0 1-3.895-7.498l8.474 1.416a4.766 4.766 0 0 1-4.579 6.082z"/><path id="_470795240" class="fil26" d="m1390.85 1010.06-8.473-1.416a4.75 4.75 0 0 1 3.894-2.025 4.77 4.77 0 0 1 4.579 3.441z"/><path id="_470781704" d="M1290.17 979.275c2.752-.467 5.504-.934 8.26-1.4-4.294-31.033-35.01-237.083-38.451-243.259-.83-3.217-12.043 20.35-74.111 28.415-17.27 17.67-28.406 38.471-35.855 65.54-8.755 31.817 7.544 165.999 8.288 173.336 48.608-6.629 81.664-14.093 131.869-22.632z" style="fill:#d50000"/><path id="_470783264" d="m1343.38 1107.05-35.657-99.55-.029-.08c-4.213-11.766-8.003-23.485-10.244-36.424-6.754 1.776-14.23 3.883-20.989 5.647-26.84 7.009-53.78 13.597-80.663 20.442-15.007 3.823-21.818 6.894-37.07 9.623.915 10.481.295 9.673.295 9.673l28.342 42.743c1.07 2.874 2.423 5.788 4.069 8.73l43.704 103.206c25.349-17.687 82.89-46.327 108.242-64.01z" style="fill:#01579b"/><path id="_470791160" class="fil29" d="M1284.02 1141.98c.606-.341 1.215-.683 1.824-1.023-.931.521-1.578.886-1.824 1.023z"/><path id="_470770376" class="fil30" d="M1307.27 1128.94a1041.8 1041.8 0 0 0 3.709-2.107l1.888-1.073-1.377.782c-1.2.688-2.41 1.37-3.634 2.066l-.586.332z"/><path id="_470792024" class="fil19" d="m1342.85 1107.42.537-.374-.537.374z"/><path id="_470778872" d="M1342.84 1107.42h.002-.002z" style="fill:#b9dcde"/><path id="_470793320" class="fil30" d="m1312.86 1125.76-.004-.005c11.689-6.69 22.257-12.997 29.984-18.338-7.724 5.341-18.298 11.656-29.982 18.34l.002.003z"/><path id="_470767904" d="m1241.47 977.717-23.614-91.17 13.298-20.998 30.103-47.525a38.504 38.504 0 0 0 5.99-20.632v-.001c-.002-12.813-6.366-25.345-17.997-32.702-.069-.045-.137-.087-.208-.13l-.025-.017a38.48 38.48 0 0 0-20.387-5.845h-.021c-12.558.006-24.845 6.125-32.252 17.317l-.077.116a5.196 5.196 0 0 1-.053.084c-.004.003-.006.01-.01.013-.032.05-.065.1-.1.15-.065.107-.133.211-.2.317l-4.23 8.815-5.822-22.479c58.147-7.554 71.662-28.714 73.818-28.714.145 0 .24.097.292.3 3.075 5.517 27.935 170.664 36.247 227.858l-54.752 15.242zm55.983-6.725h-.001.001zm-.044-.305-1.145-7.932c.427 2.949.812 5.605 1.145 7.932z" style="fill:#c20000"/><path id="_470774048" class="fil12" d="M1158.73 1006.7c-.19-1.385-.314-2.965-.39-4.128.076 1.165.201 2.748.39 4.128z"/><path id="_470790968" d="M1158.73 1006.7c-.188-1.38-.314-2.962-.39-4.128-.017-.243-.03-.466-.042-.668l.432 4.796z" style="fill:#191919"/><path id="_470769200" class="fil3" d="M1013.31 828.705a7.012 7.012 0 0 1-9.843 1.193l-23.13-18.637a7.006 7.006 0 0 1-1.193-9.838 7.011 7.011 0 0 1 9.842-1.197l18.179 14.244c3.046 2.387 8.53 11.187 6.145 14.235z"/><path id="_470782784" class="fil3" d="M990.461 867.089a7.197 7.197 0 0 1-10.102 1.227l-23.602-19.007a7.194 7.194 0 0 1 8.874-11.325l23.602 19.007a7.194 7.194 0 0 1 1.228 10.098z"/><path id="_470798384" class="fil3" d="M1004.32 840.17a7.562 7.562 0 0 1-10.61 1.287l-24.542-19.744a7.548 7.548 0 0 1-1.287-10.604 7.555 7.555 0 0 1 10.607-1.291l24.542 19.745c3.286 2.57 3.861 7.322 1.29 10.607z"/><path id="_470791328" class="fil3" d="M996.135 852.954a7.556 7.556 0 0 1-10.606 1.289l-24.544-19.744a7.553 7.553 0 0 1-1.288-10.605 7.553 7.553 0 0 1 10.609-1.29l24.543 19.74c3.284 2.576 3.862 7.328 1.286 10.61z"/><path id="_470780816" class="fil3" d="M1003.85 811.877s15.954 2.856 19.533 4.602c16.396 14.447 20.796 43.282 10.9 55.908-14.819 18.913-36.272 9.998-48.9.103l-7.837-6.342 26.304-54.271z"/><path id="_470780072" class="fil23" d="M964.771 837.544s.383.234 1.026.676c.62.473 1.604 1.015 2.693 1.771.544.373 1.134.78 1.757 1.21.606.447 1.286.869 1.977 1.326 1.39.895 2.834 1.904 4.28 2.907 1.4 1.07 2.888 2.012 4.264 2.934a95.378 95.378 0 0 1 3.701 2.606 77.202 77.202 0 0 1 3.504 2.758s-1.64-.7-4.022-1.91a97.86 97.86 0 0 1-4.01-2.175 41.153 41.153 0 0 1-4.42-2.789c-1.442-1.046-2.886-2.087-4.203-3.112-1.347-.98-2.475-2.093-3.458-2.994-1.973-1.814-3.089-3.208-3.089-3.208z"/><path id="_470789840" class="fil23" d="M969.732 821.998s1.584.71 3.83 1.964c1.13.614 2.407 1.4 3.822 2.153 1.407.77 2.87 1.642 4.335 2.51 2.91 1.774 5.745 3.665 7.818 5.182 2.08 1.504 3.395 2.645 3.395 2.645s-1.606-.635-3.906-1.791c-2.305-1.145-5.31-2.804-8.244-4.582-1.455-.905-2.912-1.807-4.242-2.702-1.355-.864-2.528-1.798-3.535-2.596-2.015-1.595-3.273-2.782-3.273-2.783z"/><path id="_470771048" class="fil23" d="M979.23 810.251s1.584.711 3.83 1.965c1.132.615 2.41 1.4 3.825 2.154 1.404.768 2.866 1.64 4.333 2.51 2.907 1.772 5.744 3.664 7.817 5.182 2.082 1.506 3.395 2.645 3.395 2.645s-1.604-.635-3.904-1.792c-2.307-1.145-5.313-2.805-8.246-4.582-1.452-.907-2.91-1.807-4.243-2.702-1.355-.863-2.525-1.798-3.532-2.597-2.015-1.594-3.275-2.783-3.275-2.783z"/><path id="_470775128" class="fil23" d="M1003.85 811.877s1.144.491 2.739 1.37c1.604.867 3.659 2.134 5.687 3.422 1 .662 2 1.327 2.937 1.949.931.63 1.802 1.216 2.546 1.72.733.55 1.386.87 1.833 1.183.452.303.71.478.71.478 0-.001-.3-.045-.83-.155-.515-.13-1.326-.245-2.161-.62-.853-.343-1.88-.733-2.874-1.294a38.558 38.558 0 0 1-3.1-1.81 42.937 42.937 0 0 1-5.32-4.067c-1.369-1.222-2.167-2.176-2.167-2.176z"/><path id="_470773904" class="fil3" d="M1186.17 936.576c-11.41 18.041-35.289 23.421-53.333 12.005-18.041-11.406-6.432-32.749 4.98-50.798l58.104-121.09c11.414-18.038 35.288-23.416 53.333-12.004 18.045 11.414 23.414 35.29 12.007 53.335l-75.091 118.552z"/><path id="_470790824" d="m1231.35 866.546 30.665-48.412c11.62-18.383 6.15-42.704-12.232-54.331-18.382-11.626-42.701-6.146-54.328 12.23l-22.144 46.15c18.303 18.303 39.737 26.06 58.039 44.363z" style="fill:#de0000"/><path id="_470788904" class="fil3" d="M1021.82 885.245c-22.857-16.933-12-14.668-5.693-29.26 6.307-14.584 6.352-21.817 20.941-15.51l130.61 50.055c19.593 8.474 29.962 20.751 21.49 40.347-8.472 19.592-26.2 29.714-50.824 20.141-30.512-11.865-116.524-65.773-116.524-65.773z"/><path id="_470790440" class="fil29" d="M1153.26 954.563a38.426 38.426 0 0 1-19.676-5.532c1.707.752 3.298 1.418 4.761 1.988 5.3 2.06 10.277 3.209 14.915 3.544z"/><path id="_470785544" d="m1187.21 934.937.01-.022 30.64-48.37v.002l-30.65 48.39z" style="fill:#00558e"/><path id="_470794760" d="M1217.86 886.547v-.002l13.298-20.996 30.103-47.525-30.103 47.525-13.298 20.998z" style="fill:#005187"/><path id="_470796224" class="fil19" d="M1051.89 903.68a2541.713 2541.713 0 0 1-6.314-3.819h.001c2.022 1.229 4.126 2.5 6.313 3.819zm-20.061-3.735zm-.91-.35zm-.05-.02c-.01-.004-.02-.008-.032-.011l.032.01zm-.05-.02c-.008-.003-.015-.004-.023-.008.008.001.015.005.022.009h.001zm-.047-.017zm-.05-.024-.004.001h.003zm-42.863-25.176a62.472 62.472 0 0 1-2.483-1.847l-7.836-6.343 7.836 6.343a62.48 62.48 0 0 0 2.483 1.847z"/><path id="_470766584" d="M987.973 853.732s-1.443-.615-3.592-1.691l-.43-.219a97.86 97.86 0 0 1-4.01-2.175l-.401-.222a40.664 40.664 0 0 1-4.018-2.567c-1.442-1.046-2.887-2.087-4.204-3.112-1.346-.98-2.474-2.093-3.458-2.994-1.93-1.778-3.04-3.15-3.087-3.207l-.002-.001s.383.234 1.027.675c.62.474 1.604 1.016 2.693 1.772.543.373 1.134.78 1.756 1.21.606.447 1.286.869 1.977 1.326 1.39.895 2.835 1.904 4.28 2.907 1.401 1.07 2.888 2.012 4.264 2.933a95.378 95.378 0 0 1 3.702 2.607l.314.235c1.952 1.47 3.189 2.523 3.189 2.523z" style="fill:#d7b293"/><path id="_470793176" d="m997.456 825.06-13.819-11.135a.037.037 0 0 0 .007.006l13.67 11.012.142.117zm-16.632-13.402-.492-.397.492.397z" style="fill:#b5d7d9"/><path id="_470774120" d="m997.313 824.943-13.669-11.013c.46.355.95.722 1.468 1.083l12.201 9.93zm-16.49-13.285-.49-.397a6.295 6.295 0 0 1-.696-.639c.271.245.673.601 1.187 1.036z" style="fill:#e5bd9c"/><path id="_470787656" d="M985.112 815.013a36.6 36.6 0 0 1-1.468-1.083c-.004-.002-.005-.004-.007-.006l-2.814-2.267c-.513-.435-.915-.79-1.187-1.035a8.527 8.527 0 0 1-.223-.245l-.183-.126.138.085 5.744 4.677z" style="fill:#cca98b"/><path id="_470784368" class="fil8" d="M1159.1 1011.58c-.35-2.556-.856-10.693-.856-10.693l137.976-38.414 2.206 15.4s-93.202 24.97-139.326 33.707z"/><rect id="_470778632" class="fil6" transform="matrix(.7824 .05309 -.05309 .7824 534.087 1385.84)" width="1344" height="64" rx="25.095" ry="25.095" style="stroke:#000;stroke-width:2.08347"/><path id="_470774264" class="fil8" d="m586.728 1447.42 129.602 8.874c17.528 1.2 24.102 1.907 24.102 20.286 0 13.255-10.848 24.102-24.102 24.102H488.101c-13.256 0-24.102-10.846-24.102-24.102v-13.371c0-26.73 23.637-52.832 46.37-52.832 32.374 0 64.757 23.436 76.359 37.043z"/><path id="_470775632" class="fil8" transform="matrix(1.12627 .32534 -.32534 1.12626 697.754 859.488)" d="M0 0h32.001v512.001H0z"/><path id="_470777552" class="fil6" d="M624.064 765.042v77.231c155.04 146.178 92.294 140.222 302.312 140.222l.001-50.36-137.887-52.008-164.426-115.084z"/><rect id="_470779280" class="fil8" x="889.887" y="946.873" width="168.278" height="22.879" rx="11.439" ry="11.439"/></g></g></svg>