<svg xmlns="http://www.w3.org/2000/svg" viewBox="0 0 256 256" style="enable-background:new 0 0 256 256" xml:space="preserve"><style>.st1{fill:#fc657e}.st5{fill:#f5c84c}.st7{fill:#70d6f9}.st8{fill:#edf4fc}.st23{fill:#f9d0b4}</style><g id="Layer_82"><path class="st5" d="M34.444 74.882c-4.498-.837-8.043-4.31-8.898-8.716a.2.2 0 0 0-.395 0c-.855 4.406-4.4 7.879-8.898 8.716a.195.195 0 0 0 0 .387c4.498.838 8.043 4.311 8.898 8.717a.2.2 0 0 0 .395 0c.855-4.406 4.4-7.879 8.898-8.717a.195.195 0 0 0 0-.387z"/><path class="st1" d="M164.863 6.361c-3.221-.6-5.76-3.087-6.372-6.243a.144.144 0 0 0-.283 0c-.612 3.156-3.151 5.643-6.372 6.243a.14.14 0 0 0 0 .277c3.221.6 5.76 3.087 6.372 6.242a.144.144 0 0 0 .283 0c.612-3.155 3.151-5.643 6.372-6.242a.14.14 0 0 0 0-.277z"/><path class="st7" d="M152.843 201.302h-2.329v-2.33a3.156 3.156 0 1 0-6.314 0v2.33h-2.33a3.157 3.157 0 0 0 0 6.315h2.33v2.33a3.157 3.157 0 1 0 6.314 0v-2.33h2.329a3.157 3.157 0 0 0 0-6.315z"/><path class="st5" d="M157.377 224a3.377 3.377 0 1 0 0 6.754 3.377 3.377 0 0 0 0-6.754z"/><path d="M15.377 92a3.377 3.377 0 1 0 0 6.754 3.377 3.377 0 0 0 0-6.754z" style="fill:#87d147"/><path class="st1" d="M203.274 31.794h-3.493v104.394c0 2.652-2.451 4.613-5.041 4.043-9.976-2.198-33.079-5.421-53.957 5.284-3.905 2.002-8.191 3.15-12.579 3.15h-.409c-4.388 0-8.674-1.147-12.578-3.149-20.878-10.706-43.981-7.482-53.957-5.285-2.59.571-5.041-1.39-5.041-4.042V31.794h-3.493a6.886 6.886 0 0 0-6.887 6.887v116.375a6.886 6.886 0 0 0 6.887 6.887h55.741c2.621 0 4.924 1.567 6.084 3.917 2.447 4.957 7.546 8.368 13.448 8.368s11.001-3.411 13.448-8.368c1.16-2.35 3.464-3.917 6.084-3.917h55.741a6.886 6.886 0 0 0 6.887-6.887V38.681a6.884 6.884 0 0 0-6.885-6.887z"/><path d="M194.74 140.23c-9.976-2.198-33.079-5.421-53.957 5.284-3.905 2.002-8.191 3.15-12.579 3.15h-.409c-4.388 0-8.674-1.147-12.578-3.149-20.878-10.706-43.981-7.482-53.957-5.285-2.59.571-5.041-1.39-5.041-4.042v11.233a3.467 3.467 0 0 0 3.467 3.467h136.629a3.466 3.466 0 0 0 3.466-3.467v-11.233c0 2.652-2.451 4.613-5.041 4.042z" style="fill:#c7d7e5"/><path class="st8" d="M196.815 24.868C158.463 13.371 128 36.755 128 36.755v111.909h.204c4.388 0 8.674-1.147 12.579-3.15 20.878-10.706 43.981-7.482 53.957-5.284 2.59.57 5.041-1.391 5.041-4.043V28.848a4.16 4.16 0 0 0-2.966-3.98zM59.185 24.868a4.16 4.16 0 0 0-2.966 3.979v107.34c0 2.652 2.451 4.613 5.041 4.042 9.976-2.197 33.079-5.42 53.957 5.285 3.904 2.002 8.19 3.149 12.578 3.149H128V36.755S97.537 13.371 59.185 24.868z"/><path class="st23" d="M224.77 142.924a34.955 34.955 0 0 0 1.583-13.359c-.492-6.445-1.053-16.323-.624-23.836a2.477 2.477 0 0 0-1.882-2.55c-6.058-1.494-12.117 2.483-13.124 8.641a84.528 84.528 0 0 0-.562 4.143v39.092a6.886 6.886 0 0 1-6.887 6.887h-44.145c.283.428.557.861.85 1.283l2.7 3.875a62.1 62.1 0 0 1 9.352 20.685l2.214 9.014 48.508-11.913-2.598-10.579a35.102 35.102 0 0 1 .669-19.105l3.946-12.278z"/><path class="st7" d="m248.824 249.207-12.917-50.515a3.696 3.696 0 0 0-4.47-2.708l-59.549 14.624a3.696 3.696 0 0 0-2.708 4.47l8.388 35.767a3.44 3.44 0 0 0 3.35 2.655h64.571a3.44 3.44 0 0 0 3.335-4.293z"/><path class="st8" d="M228.722 186.897a3.375 3.375 0 0 0-4.083-2.473l-52.082 12.791a3.375 3.375 0 0 0-2.473 4.083l2.259 9.198 58.638-14.4-2.259-9.199z"/><path d="m176.538 195.652-2.079-8.464a64.365 64.365 0 0 0-9.729-21.517l-2.7-3.876a27.012 27.012 0 0 1-.538-.809 2.501 2.501 0 0 0-4.189 2.731c.206.314.411.629.625.937l2.7 3.875a59.365 59.365 0 0 1 8.976 19.853l2.079 8.464a2.5 2.5 0 1 0 4.855-1.194zM227.15 143.688a37.301 37.301 0 0 0 1.696-14.313c-.513-6.704-1.036-16.224-.621-23.503a4.983 4.983 0 0 0-3.779-5.12A13.252 13.252 0 0 0 214 102.554a13.204 13.204 0 0 0-5.744 8.863c-.2 1.22-.385 2.576-.553 4.032a2.5 2.5 0 0 0 2.199 2.769 2.493 2.493 0 0 0 2.769-2.198c.158-1.377.333-2.654.52-3.796a8.086 8.086 0 0 1 3.563-5.497 8.195 8.195 0 0 1 6.479-1.14c-.431 7.556.104 17.313.627 24.169a32.336 32.336 0 0 1-1.471 12.403l-3.944 12.279a37.585 37.585 0 0 0-.717 20.467l2.46 10.018a2.5 2.5 0 1 0 4.856-1.193l-2.46-10.017a32.587 32.587 0 0 1 .622-17.745l3.944-12.28zM251.246 248.587l-12.912-50.492c-.395-1.606-1.392-2.964-2.807-3.821s-3.079-1.109-4.687-.717l-59.548 14.624a6.154 6.154 0 0 0-3.822 2.807 6.143 6.143 0 0 0-.724 4.662l8.389 35.766a5.918 5.918 0 0 0 5.784 4.585h64.571a5.9 5.9 0 0 0 4.692-2.297 5.905 5.905 0 0 0 1.064-5.117zm-5.013 2.049a.92.92 0 0 1-.743.364h-64.571a.937.937 0 0 1-.916-.727l-8.395-35.792a1.196 1.196 0 0 1 .876-1.445l59.549-14.624a1.203 1.203 0 0 1 .905.138c.158.096.438.319.547.761l12.917 50.515a.924.924 0 0 1-.169.81z"/><path d="m233.257 194.881-2.107-8.579a5.835 5.835 0 0 0-2.662-3.625 5.834 5.834 0 0 0-4.445-.681l-52.082 12.791a5.835 5.835 0 0 0-3.625 2.662 5.835 5.835 0 0 0-.68 4.444l2.091 8.515a2.5 2.5 0 1 0 4.856-1.191l-2.091-8.515a.87.87 0 0 1 .102-.663.871.871 0 0 1 .54-.396l52.082-12.791a.895.895 0 0 1 .663.102c.116.07.322.233.397.541l2.107 8.58a2.505 2.505 0 0 0 3.024 1.831 2.5 2.5 0 0 0 1.83-3.025z"/><path class="st23" d="M52.726 161.943a6.886 6.886 0 0 1-6.887-6.887v-39.092a84.528 84.528 0 0 0-.562-4.143c-1.008-6.158-7.066-10.134-13.124-8.641a2.477 2.477 0 0 0-1.882 2.55c.429 7.513-.131 17.391-.624 23.836a34.975 34.975 0 0 0 1.583 13.359l3.944 12.278a35.093 35.093 0 0 1 .669 19.105l-2.598 10.579 48.51 11.913 2.214-9.014a62.1 62.1 0 0 1 9.352-20.685l2.7-3.875c.294-.422.568-.855.85-1.283H52.726z"/><path class="st7" d="m84.112 210.608-59.549-14.624a3.696 3.696 0 0 0-4.47 2.708L7.176 249.207a3.44 3.44 0 0 0 3.334 4.293h64.571c1.598 0 2.985-1.1 3.35-2.655l8.388-35.767a3.695 3.695 0 0 0-2.707-4.47z"/><path class="st8" d="m83.443 197.215-52.082-12.791a3.376 3.376 0 0 0-4.083 2.473l-2.259 9.198 58.638 14.4 2.259-9.198a3.374 3.374 0 0 0-2.473-4.082z"/><path d="M48.285 115.341a86.415 86.415 0 0 0-.54-3.924 13.202 13.202 0 0 0-5.744-8.863 13.251 13.251 0 0 0-10.447-1.801 4.982 4.982 0 0 0-3.778 5.119c.416 7.279-.108 16.799-.621 23.503-.37 4.844.201 9.66 1.696 14.313l3.944 12.279a32.574 32.574 0 0 1 .622 17.744l-2.353 9.58a2.5 2.5 0 1 0 4.856 1.193l2.353-9.581a37.581 37.581 0 0 0-.717-20.466l-3.944-12.279a32.293 32.293 0 0 1-1.471-12.403c.524-6.855 1.059-16.613.612-24.148a8.124 8.124 0 0 1 6.495 1.119 8.083 8.083 0 0 1 3.563 5.497 81.71 81.71 0 0 1 .508 3.693 2.495 2.495 0 0 0 2.771 2.195 2.5 2.5 0 0 0 2.195-2.77zM97.979 160.242a2.497 2.497 0 0 0-3.459.729c-.181.278-.362.556-.55.826l-2.7 3.875a64.325 64.325 0 0 0-9.729 21.517l-1.987 8.091a2.499 2.499 0 0 0 2.43 3.097 2.503 2.503 0 0 0 2.426-1.904l1.987-8.091a59.372 59.372 0 0 1 8.976-19.853l2.701-3.877c.218-.313.426-.632.634-.951a2.5 2.5 0 0 0-.729-3.459zM88.53 210.987a6.154 6.154 0 0 0-3.822-2.807L25.16 193.557a6.16 6.16 0 0 0-4.687.717 6.135 6.135 0 0 0-2.801 3.799L4.753 248.587a5.902 5.902 0 0 0 1.064 5.116A5.904 5.904 0 0 0 10.51 256h64.571a5.918 5.918 0 0 0 5.784-4.584l8.382-35.741a6.147 6.147 0 0 0-.717-4.688zm-4.144 3.52-8.389 35.768a.937.937 0 0 1-.916.726H10.51a.923.923 0 0 1-.743-.364.929.929 0 0 1-.169-.811l12.923-50.537a1.189 1.189 0 0 1 1.158-.911c.09 0 .186.01.288.035l59.549 14.624a1.196 1.196 0 0 1 .87 1.47z"/><path d="M87.664 197.449a5.835 5.835 0 0 0-3.625-2.662l-52.083-12.791a5.883 5.883 0 0 0-7.106 4.305l-2.093 8.523a2.5 2.5 0 0 0 1.832 3.024 2.497 2.497 0 0 0 3.024-1.831l2.093-8.524c.075-.307.281-.47.397-.54s.355-.174.662-.102l52.083 12.791a.877.877 0 0 1 .641 1.059l-2.152 8.765a2.499 2.499 0 0 0 2.43 3.097 2.502 2.502 0 0 0 2.426-1.904l2.152-8.766a5.845 5.845 0 0 0-.681-4.444zM203.274 29.294h-2.743a2.5 2.5 0 1 0 0 5h2.743a4.392 4.392 0 0 1 4.387 4.387v116.375a4.392 4.392 0 0 1-4.387 4.387h-55.741c-3.519 0-6.709 2.035-8.326 5.312-2.124 4.302-6.418 6.974-11.207 6.974s-9.083-2.672-11.207-6.974c-1.617-3.276-4.807-5.312-8.326-5.312H52.726a4.392 4.392 0 0 1-4.387-4.387V38.681a4.392 4.392 0 0 1 4.387-4.387h2.815a2.5 2.5 0 1 0 0-5h-2.815c-5.176 0-9.387 4.211-9.387 9.387v116.375c0 5.176 4.211 9.387 9.387 9.387h55.742c1.602 0 3.074.968 3.842 2.524 2.972 6.021 8.984 9.761 15.69 9.761s12.718-3.74 15.69-9.761c.769-1.557 2.241-2.524 3.843-2.524h55.741c5.176 0 9.387-4.211 9.387-9.387V38.681c0-5.176-4.211-9.387-9.387-9.387z"/><path d="M199.781 133.688a2.5 2.5 0 0 0-2.5 2.5v11.233a.968.968 0 0 1-.966.967H59.686a.968.968 0 0 1-.966-.967v-11.233a2.5 2.5 0 1 0-5 0v11.233a5.973 5.973 0 0 0 5.966 5.967h136.629a5.973 5.973 0 0 0 5.966-5.967v-11.233a2.5 2.5 0 0 0-2.5-2.5z"/><path d="M128 34.729a2.5 2.5 0 0 0-2.5 2.5v110.724a2.5 2.5 0 1 0 5 0V37.229a2.5 2.5 0 0 0-2.5-2.5z"/><path d="M197.532 22.474c-34.718-10.41-62.757 6.562-69.532 11.207-6.775-4.646-34.814-21.616-69.532-11.207-2.796.837-4.749 3.459-4.749 6.374v107.34c0 2.022.903 3.909 2.478 5.175a6.632 6.632 0 0 0 5.601 1.31c8.917-1.964 31.861-5.4 52.279 5.068 4.368 2.24 9.112 3.424 13.718 3.424h.409c4.607 0 9.352-1.185 13.72-3.425 20.417-10.469 43.361-7.032 52.279-5.067a6.617 6.617 0 0 0 5.6-1.31 6.608 6.608 0 0 0 2.479-5.175V28.848c-.001-2.915-1.954-5.537-4.75-6.374zm-.251 113.714c0 .685-.383 1.095-.611 1.277a1.642 1.642 0 0 1-1.392.324c-9.446-2.082-33.774-5.71-55.636 5.501-3.718 1.907-7.566 2.874-11.438 2.874h-.409c-3.871 0-7.719-.967-11.437-2.873-11.74-6.02-24.187-7.761-34.663-7.761-9.032 0-16.6 1.296-20.973 2.259a1.647 1.647 0 0 1-1.393-.324 1.614 1.614 0 0 1-.611-1.277V28.848c0-.725.487-1.376 1.184-1.585 36.618-10.977 66.281 11.251 66.575 11.477a2.504 2.504 0 0 0 3.043.001c.295-.226 29.958-22.455 66.577-11.478.696.209 1.183.86 1.183 1.585v107.34z"/><path d="M189.518 39.297c-21.884-4.174-40.571 1.892-52.392 7.719a2.5 2.5 0 1 0 2.21 4.485c11.137-5.488 28.723-11.208 49.244-7.291a2.5 2.5 0 0 0 .938-4.913zM189.518 50.912c-21.887-4.174-40.571 1.892-52.392 7.718a2.5 2.5 0 1 0 2.21 4.485c11.136-5.486 28.719-11.206 49.244-7.29a2.502 2.502 0 0 0 .938-4.913zM189.518 62.527c-21.887-4.174-40.571 1.892-52.392 7.718a2.5 2.5 0 1 0 2.21 4.485c11.136-5.486 28.719-11.207 49.244-7.29a2.499 2.499 0 0 0 2.924-1.987 2.5 2.5 0 0 0-1.986-2.926zM189.518 74.142c-21.884-4.174-40.571 1.893-52.392 7.719a2.5 2.5 0 1 0 2.21 4.485c11.137-5.488 28.723-11.209 49.244-7.291a2.5 2.5 0 0 0 2.924-1.987 2.499 2.499 0 0 0-1.986-2.926zM189.518 85.757c-21.887-4.174-40.571 1.893-52.392 7.718a2.5 2.5 0 1 0 2.21 4.485c11.136-5.487 28.719-11.207 49.244-7.29a2.502 2.502 0 0 0 .938-4.913zM189.518 97.372c-21.887-4.175-40.571 1.893-52.392 7.718a2.5 2.5 0 1 0 2.21 4.485c11.136-5.486 28.719-11.206 49.244-7.29a2.498 2.498 0 0 0 2.924-1.987 2.5 2.5 0 0 0-1.986-2.926zM189.518 108.986c-21.884-4.175-40.571 1.892-52.392 7.719a2.5 2.5 0 1 0 2.21 4.485c11.137-5.487 28.723-11.209 49.244-7.291a2.5 2.5 0 0 0 2.924-1.987 2.5 2.5 0 0 0-1.986-2.926zM189.518 120.602c-21.884-4.174-40.571 1.892-52.392 7.719a2.5 2.5 0 1 0 2.21 4.485c11.137-5.488 28.723-11.208 49.244-7.291a2.5 2.5 0 0 0 .938-4.913zM118.874 47.016c-11.822-5.827-30.507-11.894-52.392-7.719a2.5 2.5 0 0 0 .937 4.912c20.521-3.915 38.107 1.803 49.244 7.291a2.503 2.503 0 0 0 3.348-1.137 2.499 2.499 0 0 0-1.137-3.347zM118.874 58.63c-11.821-5.826-30.505-11.891-52.392-7.718a2.5 2.5 0 0 0 .937 4.912c20.526-3.919 38.108 1.803 49.244 7.29.355.176.732.259 1.103.259a2.505 2.505 0 0 0 2.245-1.396 2.499 2.499 0 0 0-1.137-3.347zM118.874 70.245c-11.821-5.826-30.505-11.891-52.392-7.718a2.5 2.5 0 0 0 .937 4.912c20.526-3.92 38.108 1.803 49.244 7.29.355.176.732.259 1.103.259a2.5 2.5 0 0 0 1.108-4.743zM118.874 81.86c-11.822-5.826-30.507-11.895-52.392-7.719a2.5 2.5 0 0 0 .937 4.912c20.521-3.916 38.107 1.804 49.244 7.291.355.176.732.259 1.103.259a2.5 2.5 0 0 0 1.108-4.743zM118.874 93.475c-11.821-5.826-30.505-11.892-52.392-7.718a2.5 2.5 0 0 0 .937 4.912c20.526-3.921 38.108 1.803 49.244 7.29.355.176.732.259 1.103.259a2.505 2.505 0 0 0 2.245-1.396 2.499 2.499 0 0 0-1.137-3.347zM118.874 105.09c-11.821-5.826-30.505-11.892-52.392-7.718a2.5 2.5 0 0 0 .937 4.912c20.526-3.92 38.108 1.803 49.244 7.29.355.176.732.259 1.103.259a2.505 2.505 0 0 0 2.245-1.396 2.499 2.499 0 0 0-1.137-3.347z"/><g><path d="M118.874 116.705c-11.822-5.826-30.507-11.895-52.392-7.719a2.5 2.5 0 0 0 .937 4.912c20.521-3.916 38.107 1.803 49.244 7.291a2.503 2.503 0 0 0 3.348-1.137 2.499 2.499 0 0 0-1.137-3.347z"/></g><g><path d="M118.874 128.32c-11.822-5.826-30.507-11.894-52.392-7.719a2.5 2.5 0 0 0 .937 4.912c20.521-3.916 38.107 1.803 49.244 7.291a2.503 2.503 0 0 0 3.348-1.137 2.5 2.5 0 0 0-1.137-3.347z"/></g></g></svg>