<svg version="1.1" id="Layer_1" xmlns="http://www.w3.org/2000/svg" x="0" y="0" viewBox="0 0 500 500" style="enable-background:new 0 0 500 500" xml:space="preserve"><style>.st1{fill:#fddf7f}.st2{fill:#83e1e5}</style><path d="M345.923 495H154.077c-15.199 0-27.521-12.322-27.521-27.521v-3.951c0-15.199 12.322-27.521 27.521-27.521h191.845c15.199 0 27.521 12.322 27.521 27.521v3.951c.001 15.199-12.321 27.521-27.52 27.521z" style="fill:#aab1ba"/><path class="st1" d="M403.644 365.229c-.357-5.224-4.933-9.166-10.17-9.166h-65.488a7.592 7.592 0 0 1-7.592-7.592v-24.607c0-14.813-8.639-27.605-21.152-33.622l-.039-.022a37.122 37.122 0 0 0-1.764-.787c-.154-.064-.312-.122-.468-.185a36.775 36.775 0 0 0-1.343-.513c-.206-.073-.414-.14-.622-.21a36.784 36.784 0 0 0-1.232-.394c-.234-.07-.469-.135-.705-.2a36.117 36.117 0 0 0-3.144-.723c-.256-.047-.511-.095-.769-.137-.41-.067-.824-.123-1.239-.177-.251-.032-.5-.068-.752-.096a38.313 38.313 0 0 0-1.363-.116c-.219-.016-.436-.038-.655-.05a37.68 37.68 0 0 0-2.023-.057h-5.351v20.248c0 15.337-12.433 27.771-27.771 27.771a27.66 27.66 0 0 1-.002-.001c15.337 0 27.771-12.433 27.771-27.771v-20.248h-24.475v-.104c29.406-1.707 52.728-26.086 52.728-55.92 0-30.941-25.083-56.024-56.024-56.024s-56.024 25.083-56.024 56.024c0 29.709 23.129 54.004 52.361 55.892v.132h-24.108v.001H216.874c-.677 0-1.349.021-2.018.057-.221.012-.44.034-.66.05-.454.033-.908.067-1.358.116-.254.028-.505.064-.757.096-.413.053-.825.109-1.234.176-.26.042-.517.091-.775.138a36.467 36.467 0 0 0-1.948.413c-.399.096-.796.2-1.19.309-.238.066-.475.131-.71.202-.412.123-.82.255-1.225.392-.209.071-.42.138-.628.212-.45.16-.894.333-1.335.51-.158.063-.318.122-.475.187a36.64 36.64 0 0 0-1.763.787l-.039.021c-12.513 6.017-21.153 18.809-21.153 33.622v24.607a7.592 7.592 0 0 1-7.592 7.592h-65.488c-5.236 0-9.813 3.941-10.17 9.166a9.86 9.86 0 0 0 9.76 10.552l32.664.118a77.008 77.008 0 0 1 27.635 5.236l34.382 13.371v41.503h13.759V495h70.888v-58.992h13.759v-41.502l34.382-13.371a77.008 77.008 0 0 1 27.635-5.236l32.664-.118a9.86 9.86 0 0 0 9.76-10.552z"/><path class="st2" d="M299.203 344.432v-54.211a37.122 37.122 0 0 0-1.764-.787c-.154-.064-.312-.122-.468-.185a36.775 36.775 0 0 0-1.343-.513c-.206-.073-.414-.14-.622-.21a36.784 36.784 0 0 0-1.232-.394c-.234-.07-.469-.135-.705-.2a36.117 36.117 0 0 0-3.144-.723c-.256-.047-.511-.095-.769-.137-.41-.067-.824-.123-1.239-.177-.251-.032-.5-.068-.752-.096a38.313 38.313 0 0 0-1.363-.116c-.219-.016-.436-.038-.655-.05a37.68 37.68 0 0 0-2.023-.057h-5.351v20.248c0 15.337-12.433 27.771-27.771 27.771-15.337 0-27.771-12.433-27.771-27.771v-20.248H216.874c-.677 0-1.349.021-2.018.057-.221.012-.44.034-.66.05-.454.033-.908.067-1.358.116-.254.028-.505.064-.757.096-.413.053-.825.109-1.234.176-.26.042-.517.091-.775.138a36.467 36.467 0 0 0-1.948.413c-.399.096-.796.2-1.19.309-.238.066-.475.131-.71.202-.412.123-.82.255-1.225.392-.209.071-.42.138-.628.212-.45.16-.894.333-1.335.51-.158.063-.318.122-.475.187a36.64 36.64 0 0 0-1.763.787v54.211c0 11.825 9.586 21.412 21.412 21.412h55.584c11.823 0 21.409-9.587 21.409-21.412z"/><path class="st1" d="M290.393 98.637a40.296 40.296 0 0 0-3.834-16.06L250 5l-36.559 77.577a40.296 40.296 0 0 0-3.834 16.06l-42.75-15.363 20.159 56.095c4.509 12.547 17.216 20.195 30.414 18.307 10.588-1.515 19.227-8.863 22.595-18.71a40.492 40.492 0 0 0 19.951 0c3.368 9.847 12.006 17.195 22.595 18.71 13.198 1.888 25.905-5.761 30.414-18.307l20.159-56.095-42.751 15.363z"/><path class="st2" d="M274.243 132.143c10.778-8.08 16.515-20.699 16.15-33.506l-13.345 4.796c-12.547 4.509-20.195 17.216-18.307 30.414a28.126 28.126 0 0 0 1.235 5.12 40.324 40.324 0 0 0 14.267-6.824zM241.259 133.847c1.888-13.198-5.761-25.905-18.307-30.414l-13.345-4.796c-.365 12.807 5.373 25.426 16.15 33.506a40.324 40.324 0 0 0 14.267 6.824 28.044 28.044 0 0 0 1.235-5.12z"/><path class="st1" d="M109.784 182.972a40.296 40.296 0 0 0-16.06 3.834l-77.577 36.559 77.577 36.559a40.296 40.296 0 0 0 16.06 3.834l-15.363 42.75 56.095-20.159c12.547-4.509 20.195-17.216 18.307-30.414-1.515-10.588-8.863-19.227-18.71-22.595a40.492 40.492 0 0 0 0-19.951c9.847-3.368 17.195-12.006 18.71-22.595 1.888-13.198-5.761-25.905-18.307-30.414L94.42 140.222l15.364 42.75z"/><path class="st2" d="M143.289 199.122c-8.08-10.778-20.699-16.515-33.506-16.15l4.796 13.345c4.509 12.547 17.216 20.195 30.414 18.307a28.126 28.126 0 0 0 5.12-1.235 40.324 40.324 0 0 0-6.824-14.267zM144.993 232.106c-13.198-1.888-25.905 5.761-30.414 18.307l-4.796 13.345c12.807.365 25.426-5.373 33.506-16.15a40.324 40.324 0 0 0 6.824-14.267 28.044 28.044 0 0 0-5.12-1.235z"/><path class="st1" d="M390.216 182.972a40.296 40.296 0 0 1 16.06 3.834l77.577 36.559-77.577 36.559a40.296 40.296 0 0 1-16.06 3.834l15.363 42.75-56.095-20.159c-12.547-4.509-20.195-17.216-18.307-30.414 1.515-10.588 8.863-19.227 18.71-22.595a40.492 40.492 0 0 1 0-19.951c-9.847-3.368-17.195-12.006-18.71-22.595-1.888-13.198 5.761-25.905 18.307-30.414l56.095-20.159c.001.001-9.792 27.249-15.363 42.751z"/><path class="st2" d="M356.711 199.122c8.08-10.778 20.699-16.515 33.506-16.15l-4.796 13.345c-4.509 12.547-17.216 20.195-30.414 18.307a28.126 28.126 0 0 1-5.12-1.235 40.324 40.324 0 0 1 6.824-14.267zM355.007 232.106c13.198-1.888 25.905 5.761 30.414 18.307l4.796 13.345c-12.807.365-25.426-5.373-33.506-16.15a40.324 40.324 0 0 1-6.824-14.267 28.044 28.044 0 0 1 5.12-1.235z"/><path d="M182.311 141.06c4.754 13.23 17.42 21.897 31.179 21.897 1.539 0 3.092-.108 4.648-.331 10.89-1.558 20.122-8.492 24.901-17.997 2.306.353 4.633.533 6.961.533s4.655-.18 6.961-.533c4.78 9.504 14.011 16.439 24.901 17.997a32.62 32.62 0 0 0 4.648.331c13.758 0 26.425-8.668 31.179-21.896l20.159-56.095a5 5 0 0 0-6.397-6.397l-36.766 13.212a45.02 45.02 0 0 0-3.604-11.336l-36.56-77.577a4.998 4.998 0 0 0-9.043 0l-36.561 77.577a44.991 44.991 0 0 0-3.604 11.336l-36.765-13.212a4.999 4.999 0 0 0-6.397 6.397l20.16 56.094zm54.064-8.585a35.01 35.01 0 0 1-7.62-4.333c-7.378-5.531-12.061-13.564-13.591-22.194l6.096 2.19c10.054 3.614 16.313 13.776 15.115 24.337zm42.364-24.336 6.095-2.19c-1.529 8.63-6.212 16.664-13.59 22.194a34.962 34.962 0 0 1-7.62 4.333c-1.197-10.562 5.062-20.724 15.115-24.337zm29.54 29.54c-3.688 10.265-14.209 16.592-25.001 15.049-6.907-.989-12.858-5.077-16.39-10.794a44.853 44.853 0 0 0 10.354-5.789c11.014-8.257 17.347-20.86 18.063-33.959l29.544-10.617-16.57 46.11zm-90.316-52.97L250 16.729l32.036 67.98a35.094 35.094 0 0 1 3.063 10.518l-9.743 3.501c-14.709 5.286-23.779 20.354-21.565 35.826.019.131.052.257.072.387a35.89 35.89 0 0 1-7.726 0c.02-.13.053-.256.072-.387 2.214-15.473-6.856-30.54-21.565-35.826l-9.744-3.501a35.065 35.065 0 0 1 3.063-10.518zm-13.268 17.477c.716 13.099 7.049 25.702 18.063 33.959a44.853 44.853 0 0 0 10.354 5.789c-3.532 5.717-9.483 9.805-16.39 10.794-10.793 1.54-21.313-4.784-25.001-15.05l-16.57-46.109 29.544 10.617zM102.931 268.042l-13.216 36.775a5 5 0 0 0 6.396 6.397l56.096-20.159c14.709-5.286 23.779-20.354 21.565-35.826-1.558-10.89-8.492-20.122-17.997-24.901a46.027 46.027 0 0 0 0-13.923c9.505-4.78 16.439-14.011 17.997-24.901 2.214-15.474-6.856-30.541-21.565-35.827l-56.096-20.159a5 5 0 0 0-6.397 6.397l13.213 36.766a45.032 45.032 0 0 0-11.336 3.604l-77.577 36.56a4.999 4.999 0 0 0 0 9.044l77.576 36.559a45.052 45.052 0 0 0 11.341 3.594zm60.943-11.398c1.544 10.797-4.785 21.311-15.05 25l-46.11 16.57 10.615-29.537c13.099-.715 25.704-7.055 33.961-18.069a44.873 44.873 0 0 0 5.789-10.354c5.717 3.531 9.806 9.482 10.795 16.39zm-46.78 1.555 2.19-6.095c3.317-9.231 12.156-15.279 21.757-15.279.855 0 1.718.062 2.582.16a34.964 34.964 0 0 1-4.335 7.625c-5.53 7.377-13.564 12.059-22.194 13.589zm31.73-93.113c10.265 3.689 16.594 14.203 15.05 25.001-.989 6.907-5.078 12.858-10.795 16.39a44.873 44.873 0 0 0-5.789-10.354c-8.256-11.013-20.86-17.347-33.959-18.063l-10.617-29.544 46.11 16.57zm-5.203 44.654c-10.56 1.198-20.723-5.061-24.336-15.115l-2.189-6.093c8.629 1.53 16.663 6.211 22.193 13.589a35.016 35.016 0 0 1 4.332 7.619zm-47.766-18.412a35.113 35.113 0 0 1 10.518-3.062l3.5 9.74c4.754 13.231 17.419 21.898 31.177 21.898 1.539 0 3.094-.109 4.65-.332.13-.019.256-.052.386-.072a35.9 35.9 0 0 1 0 7.727c-.13-.02-.255-.053-.386-.072-15.476-2.223-30.541 6.856-35.827 21.565l-3.501 9.742a35.108 35.108 0 0 1-10.519-3.063l-67.979-32.036 67.981-32.035zm390.13 27.515-77.577-36.56a44.987 44.987 0 0 0-11.335-3.605l13.212-36.765a5 5 0 0 0-6.397-6.397l-56.096 20.159c-14.709 5.286-23.779 20.354-21.565 35.827 1.558 10.89 8.492 20.121 17.997 24.901a46.027 46.027 0 0 0 0 13.923c-9.505 4.78-16.439 14.012-17.997 24.901-2.214 15.473 6.856 30.54 21.565 35.826l56.096 20.159a5 5 0 0 0 6.396-6.397l-13.216-36.775a44.995 44.995 0 0 0 11.34-3.595l77.576-36.559a4.999 4.999 0 0 0 .001-9.043zm-149.859-28.756c-1.544-10.798 4.785-21.312 15.05-25.001l46.11-16.57-10.617 29.543c-13.099.715-25.702 7.05-33.959 18.065a44.853 44.853 0 0 0-5.789 10.354c-5.717-3.533-9.806-9.484-10.795-16.391zm46.782-1.56-2.192 6.099c-3.614 10.053-13.777 16.309-24.336 15.114a34.915 34.915 0 0 1 4.333-7.619c5.53-7.379 13.564-12.065 22.195-13.594zm-31.732 93.117c-10.265-3.689-16.594-14.203-15.05-25 .989-6.908 5.078-12.859 10.795-16.391a44.853 44.853 0 0 0 5.789 10.354c8.258 11.015 20.862 17.354 33.961 18.069l10.615 29.537-46.11-16.569zm5.201-44.66a22.94 22.94 0 0 1 2.582-.16c9.6 0 18.439 6.049 21.757 15.28l2.19 6.095c-8.63-1.53-16.664-6.213-22.194-13.591a34.91 34.91 0 0 1-4.335-7.624zm47.769 18.417a35.096 35.096 0 0 1-10.518 3.064l-3.501-9.743c-5.286-14.711-20.352-23.78-35.827-21.566-.13.019-.256.052-.386.072a35.9 35.9 0 0 1 0-7.727c.13.02.255.053.386.072a32.64 32.64 0 0 0 4.65.332c13.756 0 26.423-8.669 31.177-21.897l3.499-9.736a35.091 35.091 0 0 1 10.52 3.056l67.98 32.037-67.98 32.036zM72.948 442.5v-5.975h-5.975c-2.762 0-5-2.238-5-5s2.238-5 5-5h5.975v-5.975c0-2.762 2.238-5 5-5s5 2.238 5 5v5.975h5.975c2.762 0 5 2.238 5 5s-2.238 5-5 5h-5.975v5.975c0 2.762-2.238 5-5 5s-5-2.238-5-5zm354.104-21.949v5.975h5.975c2.762 0 5 2.238 5 5s-2.238 5-5 5h-5.975v5.975c0 2.762-2.238 5-5 5s-5-2.238-5-5v-5.975h-5.975c-2.762 0-5-2.238-5-5s2.238-5 5-5h5.975v-5.975c0-2.762 2.238-5 5-5s5 2.238 5 5zM49.205 495a5 5 0 0 1-5 5h-7.097c-2.762 0-5-2.238-5-5s2.238-5 5-5h7.097a5 5 0 0 1 5 5zm388.85-5H369.35c5.625-5.849 9.093-13.785 9.093-22.521v-3.951c0-17.932-14.589-32.521-32.521-32.521H154.077c-17.932 0-32.521 14.589-32.521 32.521v3.951c0 8.736 3.469 16.672 9.093 22.521H61.945c-2.762 0-5 2.238-5 5s2.238 5 5 5H438.056a5 5 0 1 0-.001-10zm-283.978 0c-12.418 0-22.521-10.103-22.521-22.521v-3.951c0-12.418 10.103-22.521 22.521-22.521h126.367v19.496h-60.889v-8.508c0-2.762-2.238-5-5-5s-5 2.238-5 5V490h-55.478zm189.95 0H219.556v-19.496h60.889v8.071c0 2.762 2.238 5 5 5s5-2.238 5-5v-37.567h55.479c12.418 0 22.521 10.103 22.521 22.521v3.951c0 12.418-10.103 22.521-22.521 22.521l-1.897-.001zm123.865 5a5 5 0 0 1-5 5h-7.097c-2.762 0-5-2.238-5-5s2.238-5 5-5h7.097a5 5 0 0 1 5 5zM301.514 285.786l-.15-.075a43.825 43.825 0 0 0-1.996-.891 16.376 16.376 0 0 0-.397-.158l-.132-.052c-.507-.204-1.017-.4-1.535-.585-.167-.06-.335-.116-.503-.172l-.205-.069c-.459-.153-.92-.303-1.396-.445a44.291 44.291 0 0 0-3.006-.776 41.41 41.41 0 0 0-1.369-.274 34.801 34.801 0 0 0-2.267-.354l-.204-.026a22.543 22.543 0 0 0-.649-.081 42.083 42.083 0 0 0-1.545-.133l-.208-.017a27.666 27.666 0 0 0-.534-.039 45.538 45.538 0 0 0-2.012-.056c16.618-10.914 27.621-29.708 27.621-51.033 0-33.649-27.375-61.024-61.024-61.024s-61.024 27.375-61.024 61.024c0 21.324 11.002 40.118 27.62 51.032-.675.006-1.346.022-2.029.058a21.88 21.88 0 0 0-.515.038l-.223.018c-.514.037-1.026.077-1.528.131-.235.025-.468.057-.701.088l-.153.021c-.47.061-.938.125-1.402.2a31.35 31.35 0 0 0-.875.156 40.663 40.663 0 0 0-5.76 1.491l-.161.054c-.189.063-.379.126-.563.191-.509.183-1.012.377-1.523.582l-.524.207c-.676.282-1.344.579-2.001.894l-.134.067c-14.521 7.023-23.897 21.962-23.897 38.086v24.607a2.595 2.595 0 0 1-2.593 2.592h-32.423c.476-1.437.743-2.968.743-4.563 0-8.029-6.532-14.562-14.562-14.562s-14.562 6.532-14.562 14.562c0 1.594.267 3.125.743 4.563h-5.426c-7.971 0-14.628 6.072-15.157 13.823-.284 4.144 1.109 8.098 3.923 11.134a14.935 14.935 0 0 0 10.808 4.761l32.663.117c4.471.016 8.895.445 13.244 1.275.044.01.087.02.132.028a71.917 71.917 0 0 1 12.465 3.594l31.194 12.131v20.967c0 2.762 2.238 5 5 5s5-2.238 5-5v-53.79a26.273 26.273 0 0 0 16.411 5.741h55.585c6.199 0 11.9-2.152 16.411-5.741v53.79c0 2.762 2.238 5 5 5s5-2.238 5-5v-20.967l31.194-12.131a71.904 71.904 0 0 1 12.464-3.593 6.5 6.5 0 0 0 .135-.029 71.905 71.905 0 0 1 13.241-1.274l32.685-.117a14.916 14.916 0 0 0 10.786-4.76c2.814-3.036 4.208-6.99 3.925-11.135-.53-7.751-7.188-13.823-15.158-13.823h-5.426c.476-1.437.743-2.968.743-4.563 0-8.029-6.532-14.562-14.562-14.562s-14.562 6.532-14.562 14.562c0 1.594.267 3.125.743 4.563h-32.424a2.595 2.595 0 0 1-2.592-2.592v-24.607c-.006-16.119-9.376-31.052-23.887-38.079zM125.77 341.939c2.516 0 4.562 2.046 4.562 4.562s-2.046 4.562-4.562 4.562-4.562-2.046-4.562-4.562 2.046-4.562 4.562-4.562zm248.459 0c2.516 0 4.562 2.046 4.562 4.562s-2.046 4.562-4.562 4.562-4.562-2.046-4.562-4.562 2.047-4.562 4.562-4.562zM198.976 230.55c0-28.135 22.89-51.024 51.024-51.024s51.024 22.89 51.024 51.024-22.89 51.024-51.024 51.024-51.024-22.889-51.024-51.024zM250 291.574a60.682 60.682 0 0 0 22.771-4.424v19.672c0 12.556-10.215 22.771-22.771 22.771-2.747 0-5.381-.489-7.821-1.384-8.715-3.197-14.949-11.578-14.949-21.387V287.15a60.67 60.67 0 0 0 22.77 4.424zm-143.847 79.207a4.811 4.811 0 0 1-3.528-1.558 4.83 4.83 0 0 1-1.281-3.654c.17-2.484 2.493-4.506 5.181-4.506h41.559v10.414a82.215 82.215 0 0 0-9.286-.579l-32.645-.117zm62.074 5.694a82.44 82.44 0 0 0-10.144-3.196v-12.215h13.929c6.943 0 12.593-5.648 12.593-12.592v-24.607c0-9.444 4.224-18.344 11.191-24.405v87.737l-27.569-10.722zm109.565-15.631h-22.793v-8.067c0-2.762-2.238-5-5-5s-5 2.238-5 5v8.067h-22.792c-9.049 0-16.411-7.362-16.411-16.412v-50.889c.087-.032.172-.068.261-.1l.539-.182c.35-.117.702-.231 1.059-.338.201-.061.404-.117.614-.175a32.464 32.464 0 0 1 1.674-.416c.341-.074.685-.143 1.059-.211a23.538 23.538 0 0 1 1.732-.27l.203-.027c.146-.02.29-.039.44-.056.392-.043.787-.071 1.171-.1l.576-.044c.582-.032 1.167-.05 1.771-.051h.334v15.248c0 13.552 8.27 25.209 20.027 30.191A32.603 32.603 0 0 0 250 339.591c18.069 0 32.771-14.701 32.771-32.771v-15.248h.345c.591.001 1.178.019 1.742.049l.58.045c.397.029.795.059 1.188.101.135.015.269.033.402.051l.247.033c.363.047.725.096 1.078.152.212.035.422.074.663.12a32.116 32.116 0 0 1 1.687.357c.348.083.693.174 1.047.271.2.056.402.111.591.168.362.108.722.225 1.059.338l.551.187c.085.031.169.065.254.097v50.888c-.002 9.052-7.364 16.415-16.413 16.415zm120.864 4.725a4.835 4.835 0 0 1-1.282 3.654 4.805 4.805 0 0 1-3.508 1.558l-32.665.117a82.198 82.198 0 0 0-9.285.579v-10.414h41.559c2.687 0 5.011 2.022 5.181 4.506zm-70.67-4.506h13.93v12.215a82.152 82.152 0 0 0-10.144 3.196l-27.569 10.722v-87.737c6.968 6.061 11.191 14.961 11.191 24.405v24.607c.001 6.944 5.649 12.592 12.592 12.592zM250 407.226a5 5 0 0 1 5 5v3.343c0 2.762-2.238 5-5 5s-5-2.238-5-5v-3.343a5 5 0 0 1 5-5z" style="fill:#1c1d21"/></svg>